<svg width="440" height="363" viewBox="0 0 440 363" fill="none" xmlns="http://www.w3.org/2000/svg">
<mask id="path-1-inside-1_9_608" fill="white">
<path d="M184.822 140.508L208.83 144.014L213.332 144.515L303.363 153.13L312.867 154.533L360.884 181.079L367.386 179.577L370.887 184.085L372.388 197.108L382.591 211.132L386.893 217.143L377.889 256.713L380.39 293.778L373.257 319.26L163.257 358.26L163.007 362.81L157.657 363L157.557 362.76L156.757 359.76L84.2572 335.26L93.79 299.76L81.2572 216.76L81.2572 211.26L83.2572 208.76L84.2867 205.76L85.7572 202.76L93.79 180.078L121.3 146.519L184.822 140.508Z"/>
</mask>
<path d="M184.822 140.508L208.83 144.014L213.332 144.515L303.363 153.13L312.867 154.533L360.884 181.079L367.386 179.577L370.887 184.085L372.388 197.108L382.591 211.132L386.893 217.143L377.889 256.713L380.39 293.778L373.257 319.26L163.257 358.26L163.007 362.81L157.657 363L157.557 362.76L156.757 359.76L84.2572 335.26L93.79 299.76L81.2572 216.76L81.2572 211.26L83.2572 208.76L84.2867 205.76L85.7572 202.76L93.79 180.078L121.3 146.519L184.822 140.508Z" fill="white"/>
<path d="M373.137 319.227C373.217 319.249 373.297 319.272 373.378 319.294C375.752 310.799 378.127 302.304 380.502 293.809L380.506 293.77C380.079 287.46 379.651 281.151 379.223 274.841C378.813 268.796 378.404 262.751 377.994 256.706L377.991 256.736C380.989 243.545 383.986 230.354 386.983 217.163L386.992 217.123L386.968 217.089C385.533 215.086 384.099 213.083 382.665 211.08C379.262 206.405 375.859 201.731 372.457 197.057L372.473 197.098C371.971 192.757 371.47 188.416 370.968 184.075L370.966 184.053L370.952 184.034C369.784 182.532 368.617 181.03 367.449 179.527L367.418 179.487L367.368 179.498C365.2 180 363.033 180.501 360.866 181.003L360.922 181.011C344.914 172.166 328.906 163.321 312.898 154.476L312.876 154.469C309.708 154.002 306.54 153.535 303.373 153.068C273.358 150.203 243.347 147.338 213.336 144.472C211.836 144.306 210.335 144.139 208.835 143.972C200.833 142.805 192.83 141.638 184.827 140.471C163.645 142.478 142.471 144.485 121.297 146.492L121.286 146.493L121.279 146.502C112.111 157.689 102.943 168.877 93.7742 180.065C91.0942 187.632 88.4176 195.193 85.7409 202.755C85.2517 203.753 84.7616 204.753 84.2716 205.753C83.9277 206.755 83.5847 207.755 83.2417 208.755C82.5778 209.584 81.9112 210.417 81.2447 211.25L81.2411 211.255L81.2411 211.26C81.2414 213.094 81.2416 214.927 81.2418 216.76C85.4228 244.429 89.6032 272.095 93.783 299.761C90.6065 311.592 87.4297 323.426 84.2528 335.259C108.423 343.43 132.59 351.595 156.757 359.761C157.023 360.761 157.29 361.761 157.556 362.761C157.59 362.841 157.623 362.921 157.656 363.001C159.441 362.938 161.224 362.874 163.007 362.811C163.091 361.294 163.174 359.777 163.258 358.26C180.169 355.12 197.082 351.979 213.994 348.838C216.822 348.313 219.651 347.788 222.48 347.262C231.694 345.551 240.907 343.84 250.121 342.129C276.276 337.271 302.434 332.43 328.595 327.606C343.489 324.86 358.384 322.119 373.28 319.383C373.265 319.301 373.25 319.219 373.234 319.137C358.35 321.933 343.464 324.722 328.577 327.506C302.428 332.397 276.276 337.271 250.121 342.129C240.907 343.84 231.693 345.55 222.48 347.262C219.651 347.787 216.822 348.313 213.994 348.838C197.082 351.979 180.169 355.119 163.257 358.26C163.173 359.777 163.09 361.294 163.006 362.81C161.224 362.873 159.44 362.936 157.657 363C157.625 362.92 157.591 362.84 157.558 362.76C157.291 361.76 157.025 360.76 156.758 359.76C132.591 351.592 108.425 343.424 84.2586 335.256C87.4399 323.428 90.6183 311.595 93.7969 299.762C89.6217 272.092 85.4468 244.425 81.2725 216.758C81.2728 214.927 81.273 213.094 81.2733 211.26L81.2697 211.27C81.9365 210.437 82.6033 209.604 83.27 208.771C83.616 207.766 83.9593 206.766 84.3026 205.766C84.7921 204.768 85.2824 203.768 85.7727 202.768C88.452 195.206 91.1306 187.645 93.8092 180.084C102.977 168.905 112.149 157.72 121.32 146.535L121.302 146.545C142.477 144.545 163.651 142.545 184.825 140.545C192.819 141.715 200.822 142.885 208.824 144.056C210.326 144.223 211.827 144.39 213.327 144.558C243.338 147.435 273.348 150.314 303.357 153.192C306.522 153.66 309.69 154.128 312.857 154.597L312.835 154.589C328.839 163.442 344.842 172.295 360.845 181.148L360.872 181.163L360.901 181.156C363.069 180.656 365.236 180.155 367.404 179.655L367.322 179.626C368.489 181.129 369.656 182.632 370.822 184.135L370.806 184.094C371.305 188.435 371.804 192.776 372.303 197.117L372.305 197.14L372.318 197.158C375.718 201.834 379.118 206.51 382.518 211.186C383.951 213.189 385.384 215.193 386.817 217.197L386.802 217.122C383.798 230.311 380.793 243.5 377.787 256.689L377.785 256.72C378.191 262.765 378.597 268.81 379.003 274.856C379.427 281.166 379.851 287.476 380.274 293.786L380.278 293.747C377.898 302.24 375.517 310.733 373.137 319.227ZM373.378 319.294L373.137 319.227L373.234 319.137L373.28 319.383L373.356 319.369L373.378 319.294Z" fill="black" mask="url(#path-1-inside-1_9_608)"/>
<path d="M162.756 202.262L309.228 212.004L352.736 214.886C363.885 215.73 375.706 217.07 386.883 217.115L386.823 326.939C377.112 327.63 365.755 330.312 355.859 331.54C339.636 334.329 323.39 336.977 307.12 339.484L162.987 362.815C162.654 353.689 162.899 343.175 162.889 333.951L162.844 277.444L162.791 226.89C162.782 218.828 162.422 210.196 162.756 202.262Z" fill="#343331"/>
<path d="M231.971 234.944C247.736 234.268 246.061 270.119 245.566 280.46C245.015 291.94 249.279 316.656 232.616 317.377C223.554 317.152 221.087 309.931 220.181 301.79C218.158 283.615 216.183 262.05 221.934 244.471C223.43 239.898 227.879 236.647 231.971 234.944Z" fill="#E2C35B"/>
<path d="M232.466 244.987C233.769 244.909 234.602 244.852 235.755 245.453C238.011 248.135 236.518 276.623 236.533 281.341C236.553 287.948 236.433 296.919 236.183 303.771C236.115 305.606 234.322 308.867 232.491 309.343L232.019 308.935C230.358 306.716 228.982 303.773 228.385 301.036C224.869 284.925 226.32 268.556 228.042 252.315C228.252 250.311 228.44 247.96 229.413 246.179C229.858 245.363 231.581 245.152 232.466 244.987Z" fill="#4A390C"/>
<path d="M266.273 236.743C276.321 238.065 276.564 255.911 276.617 263.743L276.619 285.283C276.609 291.945 276.909 298.642 275.591 305.208C274.231 311.993 270.027 314.647 263.304 314.642C262.046 314.412 260.854 314.091 259.781 313.368C256.52 311.176 255.307 306.538 254.586 302.892C252.131 290.44 250.898 252.613 257.61 242.688C259.663 239.653 262.664 237.464 266.273 236.743Z" fill="#E2C35B"/>
<path d="M265.308 245.142C266.473 245.939 267.694 247.341 268.624 248.398C269.857 254.056 269.179 265.616 269.117 271.779C269.059 277.562 268.951 283.345 268.789 289.127C268.714 292.413 269.009 306.788 265.268 307.475L264.898 307.036C256.742 294.627 259.953 267.437 261.354 253.089C261.741 249.107 262.212 247.569 265.308 245.142Z" fill="#4A390C"/>
<path d="M308.105 239.54C312.849 239.445 317.523 240.81 319.819 245.328C324.868 255.275 322.147 267.84 319.684 277.98C321.695 281.807 323.813 285.666 324.086 290.026C324.508 296.801 323.555 302.145 319.129 307.352C316.383 309.941 312.447 311.998 308.635 310.222C307.425 309.626 305.882 307.963 305.572 306.641C303.971 299.841 304.319 292.208 304.236 285.235C304.086 276.963 304.051 268.694 304.136 260.422C304.186 255.385 304.189 250.181 304.399 245.142C304.459 243.702 306.644 239.926 308.105 239.54Z" fill="#E2C35B"/>
<path d="M312.487 246.61C319.054 247.662 316.886 264.597 315.615 269.102C314.998 271.296 313.962 272.994 312.524 274.729C311.691 275.578 311.234 276.23 310.116 276.392C310.071 276.342 310.021 276.3 309.983 276.242C308.678 274.309 309.458 253.893 309.948 250.609C310.276 248.421 310.729 247.925 312.487 246.61Z" fill="#4A390C"/>
<path d="M312.349 284.549C314.82 284.291 315.518 284.374 317.603 285.591C318.986 292.779 318.079 297.903 314.14 303.923C313.687 304.575 313.295 305.176 312.589 305.351C309.518 303.42 308.998 289.388 310.501 286.052C310.951 285.053 311.464 284.88 312.349 284.549Z" fill="#4A390C"/>
<path d="M189.252 230.274C193.858 229.77 204.071 230.153 208.293 231.796C210.194 232.535 214.159 234.829 214.972 236.642L214.632 237.148C212.525 238.373 205.578 239.054 202.597 239.593C202.941 264.759 203.078 289.926 203.009 315.096L202.767 319.831C199.901 319.348 196.705 320.257 194.564 317.993C192.937 316.273 191.534 313.217 191.214 310.886C190.235 303.758 190.819 296.277 190.759 289.145C190.62 272.763 191.501 256.402 191.34 240.053C184.093 239.112 181.798 239.332 182.105 231.19C184.233 230.622 187.014 230.459 189.252 230.274Z" fill="#E2C35B"/>
<path d="M338.753 240.389C346.481 243.58 345.893 252.343 346.518 259.583C347.136 266.695 346.303 274.199 346.173 281.331C345.908 286.999 346.191 292.709 345.616 298.359C344.98 304.575 342.359 307.309 336.542 308.912C327.822 309.248 328.232 289.636 328.295 283.946C328.42 272.643 327.627 260.399 330.78 249.43C332.008 245.162 334.869 242.35 338.753 240.389Z" fill="#E2C35B"/>
<path d="M338.643 247.84L339.144 248.16C341.812 252.956 340.134 268.503 339.934 274.301C339.829 277.392 339.796 299.756 338.496 300.988C337.353 301.194 337.055 301.066 335.877 300.853C333.922 293.695 332.866 285.887 333.069 278.474C333.179 274.421 334.752 253.928 335.795 251.328C336.37 249.888 337.546 248.881 338.643 247.84Z" fill="#4A390C"/>
<path d="M356.44 300.901C356.109 302.468 355.674 304.256 354.674 305.549C353.709 306.796 351.505 307.465 350.267 306.29C348.734 300.294 353.093 287.838 353.916 281.133C354.852 275.894 354.819 270.52 354.982 265.265C355.222 257.421 353.413 250.797 351.43 243.377C351.308 242.923 351.683 242.483 351.981 242.205C354.639 241.624 356.327 244.343 357.515 246.257L357.985 246.41C359.746 250.517 359.736 255.38 360.811 258.348L360.854 257.469C361.124 257.229 361.334 257.041 361.616 256.813C361.591 254.724 361.476 248.23 362.209 246.537L362.484 246.492C363.405 244.869 365.055 241.609 367.296 242.523C369.064 245.062 366.12 252.548 365.648 255.673C365.125 259.114 365.225 263.214 364.642 266.563C364.595 270.347 364.647 274.817 364.422 278.544C364.435 282.405 364.94 285.746 365.54 289.526C366.366 294.735 367.961 299.671 366.731 304.918C359.926 306.037 361.972 303.728 360.178 298.854C358.645 297.64 359.473 296.628 358.23 295.371L357.873 295.501C356.895 297.78 357.928 299.21 356.44 300.901Z" fill="url(#paint0_linear_9_608)"/>
<path d="M364.422 278.544C364.435 282.405 364.94 285.746 365.54 289.526C366.366 294.735 367.961 299.671 366.731 304.918C359.926 306.037 361.972 303.728 360.178 298.854C360.163 297.404 360.231 295.952 360.383 294.507C360.689 291.361 362.082 280.465 364.422 278.544Z" fill="#E2C35B"/>
<path d="M362.484 246.492C363.405 244.869 365.055 241.609 367.296 242.523C369.064 245.062 366.121 252.548 365.648 255.673C365.125 259.114 365.225 263.214 364.642 266.563C363.555 268.992 364.21 274.734 363.9 277.83L363.58 277.935C363.254 277.414 362.974 272.46 362.552 271.797C362.194 269.793 362.762 268.789 361.859 267.374C361.746 259.858 362.182 254.141 362.467 246.943L362.484 246.492Z" fill="#E2C35B"/>
<path d="M362.552 271.797C362.974 272.46 363.254 277.414 363.58 277.935L363.9 277.83C364.21 274.734 363.555 268.992 364.642 266.563C364.595 270.347 364.647 274.817 364.422 278.544C362.082 280.465 360.689 291.361 360.383 294.507C360.231 295.952 360.163 297.404 360.178 298.854C358.645 297.64 359.473 296.628 358.23 295.371L357.873 295.501C356.895 297.78 357.928 299.21 356.44 300.901C357.247 295.646 357.24 290.447 358.195 285.303C358.83 282.285 362.112 279.833 362.732 276.846C363.004 275.526 362.369 273.465 362.552 271.797Z" fill="url(#paint1_linear_9_608)"/>
<path d="M357.515 246.257L357.985 246.41C359.746 250.517 359.736 255.38 360.811 258.348L360.854 257.469C361.124 257.229 361.334 257.041 361.616 256.813C361.591 254.724 361.476 248.23 362.209 246.537L362.484 246.492L362.467 246.943C362.182 254.141 361.746 259.858 361.859 267.374C360.681 267.216 360.481 259.215 360.256 257.729C359.666 253.87 358.458 250.284 357.587 246.575L357.515 246.257Z" fill="#706515"/>
<path d="M285.73 237.359C289.771 237.614 290.354 242.114 290.772 245.455C291.807 253.778 291.264 262.899 291.174 271.238L291.069 290.172C291.054 293.74 290.701 299.173 291.914 302.423C292.717 304.572 298.914 304.95 301.17 305.727C301.745 307.264 302.656 308.584 301.78 310.044C300.795 310.68 299.577 310.648 298.364 310.76C294.185 311.028 285.902 311.87 282.494 308.592C281.536 307.67 281.523 303.26 281.526 301.835C281.556 288.995 282.281 276.205 283.161 263.399C283.664 255.876 283.374 247.93 284.452 240.414C284.657 238.986 284.739 238.35 285.73 237.359Z" fill="#E2C35B"/>
<path d="M98.5299 68.8028C104.644 72.9792 120.301 89.1492 124.773 95.9189C125.846 97.5435 125.227 100.407 124.654 102.25L122.447 104.111C123.739 105.689 124.997 107.294 126.218 108.928C129.639 112.561 132.876 116.365 136.15 120.131C139.306 123.761 142.896 127.631 145.869 131.416C145.193 132.344 145.612 132.062 144.691 132.46L143.828 132.368C144.415 133.206 144.888 133.917 145.582 134.683C144.694 135.584 144.641 135.836 143.439 136.08L142.08 136.169L141.277 136.636L141.204 137.213C139.854 138.579 139.316 138.879 137.536 139.595L138.872 141.048C138.522 141.364 138.095 141.665 138.198 142.251C138.871 146.074 146.283 155.199 147.408 158.315L145.894 159.276L144.152 157.69C141.656 157.243 135.192 156.577 132.53 156.467L139.226 165.558C139.824 166.376 141.79 169.226 142.383 169.867C149.216 175.64 153.5 181.28 158.452 188.65C159.426 190.098 160.944 191.773 161.593 193.268L161.421 193.659C159.964 194.162 156.364 192.277 155.493 191.092C155.459 190.406 155.478 190.431 155.676 189.765C154.981 188.142 153.231 188.067 151.874 188.846C152.722 190.431 154.193 191.631 154.409 193.654C155.505 195.625 157.01 197.924 157.144 200.12C157.428 204.789 157.217 209.767 157.175 214.458L157.174 238.656L157.274 330.906C157.259 336.914 157.208 342.925 157.121 348.933C157.093 352.254 156.976 359.872 157.664 363C136.079 356.441 114.651 349.373 93.3989 341.805C88.131 339.979 82.8432 337.938 77.6028 336.15C76.9118 329.125 77.4483 317.284 77.4658 309.809L77.7726 255.015L77.8032 226.885C77.8057 223.103 77.5906 213.156 78.3796 210.078C79.9729 203.86 83.2851 195.635 85.4868 189.344C90.7744 174.235 96.05 159.182 101.928 144.302C99.1449 140.783 96.2361 137.365 93.2075 134.055C90.5441 137.087 87.0016 139.707 83.9275 142.414C76.9251 148.579 73.4992 155.524 73.9538 164.95C74.2339 170.761 76.9276 175.014 79.7386 179.932C80.6316 181.495 81.6152 182.955 82.1582 184.666C81.753 186.792 79.3124 195.978 78.3158 197.609C78.0437 198.921 77.7826 200.331 77.4395 201.618C77.2255 203.266 77.0972 204.934 76.9519 206.589C71.4492 206.519 54.3792 202.144 50.7347 198.54C48.6767 197.543 45.8305 195.645 43.8258 194.388C37.0271 189.89 32.8149 186.83 26.6352 181.347C16.1653 172.046 7.85767 160.558 2.29597 147.695C1.1692 145.048 -1.30356 140.707 0.856117 138.266C1.69251 137.462 2.93069 136.814 3.96506 136.328C5.27526 135.069 19.2864 129.112 21.9909 127.783C36.2174 120.794 50.3978 113.972 63.6039 105.084C68.2773 101.939 69.5855 96.14 72.5406 91.7929C78.3539 83.2403 88.703 72.2311 98.5299 68.8028Z" fill="#343331"/>
<path d="M117.87 102.829C121.062 104.541 122.635 107.659 125.227 110.199L124.781 108.426L125.048 108.284L126.219 108.928C129.639 112.561 132.877 116.365 136.15 120.131C139.306 123.761 142.896 127.631 145.869 131.416C145.193 132.344 145.612 132.062 144.691 132.46L143.828 132.368C144.416 133.206 144.888 133.917 145.583 134.683C144.694 135.584 144.641 135.836 143.439 136.08L142.08 136.169L141.277 136.636L141.204 137.213C139.854 138.579 139.317 138.879 137.536 139.595C136.603 140.325 136.763 140.398 135.889 140.313C135.249 139.67 135.165 138.592 134.971 137.659C134.802 136.972 134.759 135.823 134.677 135.046L134.293 134.844L133.39 135.574C132.916 136.519 132.264 138.597 131.89 139.693C119.993 140.614 125.067 138.196 117.052 131.939C116.428 131.452 113.389 130.532 112.267 130.047L112.017 129.937C108.604 126.688 103.134 118.645 99.6324 114.499C102.099 112.093 104.362 109.778 106.903 107.429L107.321 108.131C107.673 107.479 107.68 107.441 108.17 106.896L108.721 106.884L109.037 106.194C109.921 105.595 111.125 105.502 112.216 105.307C112.977 105.046 114.782 103.831 115.481 103.32C116.138 103.075 117.145 102.949 117.87 102.829Z" fill="white"/>
<path d="M117.87 102.829C121.062 104.541 122.634 107.659 125.227 110.199L124.781 108.426L125.048 108.284L126.218 108.928C129.639 112.561 132.876 116.365 136.15 120.131C139.306 123.761 142.896 127.631 145.869 131.416C145.193 132.344 145.612 132.062 144.691 132.46L143.828 132.368C144.415 133.206 144.888 133.917 145.582 134.683C144.694 135.584 144.641 135.836 143.439 136.08L142.08 136.169L141.277 136.636L141.204 137.213C139.854 138.579 139.316 138.879 137.536 139.595C136.603 140.325 136.763 140.398 135.889 140.313C135.249 139.67 135.165 138.592 134.971 137.659C134.802 136.972 134.759 135.823 134.677 135.046L134.293 134.844L133.39 135.574C134.393 133.009 135.669 134.151 136.776 132.299C136.744 130.618 133.404 127.464 132.123 126.199C126.804 124.179 117.107 106.243 112.216 105.307C112.977 105.046 114.782 103.831 115.48 103.32C116.138 103.075 117.145 102.949 117.87 102.829Z" fill="url(#paint2_linear_9_608)"/>
<path d="M125.227 110.199L124.781 108.426L125.048 108.284L126.218 108.928C129.639 112.561 132.876 116.365 136.15 120.131C139.306 123.761 142.896 127.631 145.869 131.416C145.193 132.344 145.612 132.062 144.691 132.46L143.828 132.368C139.017 125.374 130.888 116.938 125.227 110.199Z" fill="#020202"/>
<path d="M134.971 137.659C134.993 136.636 134.957 136.441 135.273 135.493C136.969 133.75 139.467 135.599 141.277 136.636L141.204 137.213C139.854 138.579 139.316 138.879 137.536 139.595C136.603 140.325 136.763 140.398 135.889 140.313C135.249 139.67 135.165 138.592 134.971 137.659Z" fill="#DCDBDC"/>
<path d="M132.124 126.199C136.101 126.061 137.88 134.706 142.08 136.169L141.277 136.636C139.467 135.599 136.969 133.75 135.273 135.493C134.957 136.441 134.993 136.636 134.971 137.659C134.802 136.972 134.759 135.823 134.677 135.046L134.293 134.844L133.39 135.574C134.393 133.009 135.669 134.151 136.776 132.299C136.744 130.618 133.404 127.464 132.124 126.199Z" fill="#56575C"/>
<path d="M107.321 108.131C107.672 107.479 107.68 107.441 108.17 106.896L108.721 106.884C110.21 111.873 114.006 115.851 117.254 119.845C120.157 123.371 122.988 126.955 125.746 130.595C127.513 132.919 129.69 135.456 130.276 138.362L130.074 138.485C128.568 137.088 125.778 132.394 124.201 130.381C118.963 123.692 113.686 117.012 108.431 110.334C107.815 109.552 107.622 109.065 107.321 108.131Z" fill="#56575C"/>
<path d="M0.856118 138.266C1.69251 137.462 2.93069 136.814 3.96506 136.328L4.46373 136.673L4.11911 137.214C6.3599 138.06 8.44838 143.769 9.72883 146.145C10.7009 147.926 11.7533 149.663 12.8827 151.349C15.0935 154.653 18.0757 158.231 20.7042 161.254C20.7419 162.77 22.978 163.451 21.4944 165.811L20.9928 166.023C20.3095 165.657 20.2045 165.387 19.7748 164.749L19.5148 164.747C20.2583 165.964 26.5615 173.098 27.5956 173.656C29.0333 174.926 30.2223 176.188 31.5512 177.571C34.2824 180.298 36.9474 183.058 40.0422 185.379C41.6145 186.474 49.7784 192.597 50.928 193.063C51.8341 193.429 52.8674 193.879 53.7767 194.198L55.2695 194.904C54.0806 196.384 54.3565 196.482 52.6091 196.679L52.0639 196.667C51.2851 196.97 50.6279 197.038 50.3008 197.596L50.829 198.144L50.7347 198.54C48.6767 197.543 45.8305 195.645 43.8258 194.388C37.0271 189.89 32.8149 186.83 26.6352 181.347C16.1653 172.046 7.85767 160.558 2.29597 147.695C1.1692 145.048 -1.30356 140.707 0.856118 138.266Z" fill="#DCDBDC"/>
<path d="M0.856117 138.266C1.5122 139.674 1.17605 140.486 1.6605 141.475L1.80155 141.861C2.19294 142.946 2.40701 144.15 2.84641 145.218C10.4301 163.647 25.1082 179.777 41.5422 190.761C42.5868 191.458 44.7738 192.685 45.5594 193.424L46.1718 194.4C45.5531 194.741 44.6633 194.483 43.8258 194.388C37.0271 189.89 32.8149 186.83 26.6352 181.347C16.1653 172.046 7.85767 160.558 2.29597 147.695C1.1692 145.048 -1.30356 140.707 0.856117 138.266Z" fill="#020202"/>
<path d="M45.5594 193.424C47.7482 194.618 49.7144 196.088 52.0639 196.667C51.2852 196.97 50.6279 197.038 50.3008 197.596L50.829 198.145L50.7347 198.54C48.6767 197.543 45.8305 195.645 43.8258 194.388C44.6633 194.483 45.5532 194.741 46.1719 194.4L45.5594 193.424Z" fill="#19191C"/>
<path d="M0.856079 138.266C1.69247 137.462 2.93065 136.814 3.96502 136.328L4.46369 136.673L4.11907 137.214C2.08736 138.673 1.73949 138.894 1.66046 141.475C1.17602 140.486 1.51216 139.674 0.856079 138.266Z" fill="#27282A"/>
<path d="M20.7042 161.254L21.0083 161.492C24.8334 164.54 30.4273 171.35 34.383 174.899C45.6202 184.984 62.5116 195.442 77.5734 197.578L78.3159 197.609C78.0438 198.921 77.7827 200.331 77.4396 201.618C77.2255 203.266 77.0972 204.934 76.9519 206.589C71.4492 206.519 54.3792 202.144 50.7347 198.54L50.829 198.144L50.3008 197.596C50.6279 197.038 51.2851 196.97 52.0639 196.667L52.6091 196.679C54.3565 196.482 54.0806 196.384 55.2695 194.904L53.7768 194.198C52.8674 193.879 51.8341 193.429 50.928 193.063C49.7784 192.597 41.6145 186.474 40.0422 185.38C36.9474 183.058 34.2824 180.298 31.5512 177.571C30.2223 176.188 29.0334 174.926 27.5956 173.656C26.5615 173.098 20.2583 165.964 19.5148 164.747L19.7749 164.749C20.2045 165.387 20.3095 165.657 20.9928 166.023L21.4945 165.811C22.978 163.451 20.7419 162.77 20.7042 161.254Z" fill="url(#paint3_linear_9_608)"/>
<path d="M55.2695 194.904C57.1767 195.891 58.6212 196.632 60.6036 197.431C63.2431 198.107 66.8328 201.864 69.2016 200.789C69.6886 200.158 69.8509 199.905 70.2455 199.244L71.0053 198.931C72.9087 199.452 74.8419 199.965 76.7358 200.514C77.1849 201.082 77.198 200.979 77.4395 201.618C77.2255 203.266 77.0972 204.934 76.9519 206.589C71.4492 206.519 54.3792 202.144 50.7347 198.54L50.829 198.144L50.3008 197.596C50.6279 197.038 51.2851 196.97 52.0639 196.667L52.6091 196.679C54.3565 196.482 54.0806 196.384 55.2695 194.904Z" fill="#444447"/>
<path d="M55.2696 194.904C57.1767 195.891 58.6212 196.632 60.6037 197.431L60.0405 198.124C56.9296 199.169 55.3508 197.048 52.6091 196.679C54.3565 196.482 54.0806 196.384 55.2696 194.904Z" fill="#A2A2A1"/>
<path d="M55.8702 193.411C60.9107 195.089 65.4168 197.386 71.0053 198.931L70.2455 199.244C69.8509 199.905 69.6886 200.158 69.2016 200.789C66.8328 201.864 63.243 198.107 60.6036 197.431C58.6212 196.632 57.1767 195.891 55.2695 194.904L53.7767 194.198C55.1542 194.188 55.0689 194.198 55.8702 193.411Z" fill="url(#paint4_linear_9_608)"/>
<path d="M40.0422 185.38C40.126 184.778 40.1025 184.946 40.3648 184.375C40.9468 184.51 41.3474 184.646 41.9124 184.831C44.2082 185.385 49.1872 190.398 52.2133 191.658C51.3307 192.066 51.4575 191.886 50.928 193.063C49.7784 192.597 41.6145 186.474 40.0422 185.38Z" fill="#19191C"/>
<path d="M32.1068 175.943C34.1215 177.919 36.077 179.82 38.1455 181.738C39.1928 182.71 41.1388 184.03 41.9123 184.831C41.3473 184.646 40.9467 184.511 40.3647 184.375C40.1024 184.946 40.1259 184.778 40.0421 185.38C36.9473 183.058 34.2824 180.298 31.5511 177.571L31.9528 176.98C31.9753 176.484 31.9623 176.451 32.1068 175.943Z" fill="url(#paint5_linear_9_608)"/>
<path d="M27.5956 173.656C28.5269 173.293 28.663 173.015 29.5703 173.433C30.254 173.752 31.7045 175.347 32.1069 175.943C31.9624 176.451 31.9754 176.484 31.9529 176.98L31.5512 177.571C30.2223 176.188 29.0333 174.926 27.5956 173.656Z" fill="#56575C"/>
<path d="M52.2132 191.658C53.3278 192.154 54.8741 192.773 55.8702 193.411C55.0689 194.198 55.1542 194.188 53.7767 194.198C52.8674 193.879 51.834 193.429 50.928 193.063C51.4574 191.886 51.3306 192.066 52.2132 191.658Z" fill="#020202"/>
<path d="M77.5734 197.578L78.3159 197.609C78.0438 198.921 77.7827 200.331 77.4396 201.618C77.198 200.979 77.185 201.082 76.7358 200.514C77.4173 199.662 77.4161 198.68 77.5734 197.578Z" fill="#89898A"/>
<path d="M97.5053 114.183L98.4246 115.027C99.2787 114.943 98.8743 115.074 99.6323 114.499C103.134 118.645 108.603 126.688 112.017 129.937L111.021 130.168C108.822 131.202 107.036 133.205 105.687 135.185C103.317 132.053 101.351 130.202 98.9896 126.668C97.0231 122.651 95.6967 123.398 96.3879 118.468L96.2581 118.398C96.3782 117.816 95.7769 117.085 96.1471 116.348C96.2439 116.156 96.3957 115.438 96.4554 115.188L97.5053 114.183Z" fill="white"/>
<path d="M97.5053 114.183L98.4246 115.027C99.2787 114.943 98.8743 115.074 99.6323 114.499C103.134 118.645 108.603 126.688 112.017 129.937L111.021 130.168C110.826 129.455 109.504 128.577 108.91 127.851C105.462 123.646 101.985 119.341 98.7202 114.992C97.4395 116.305 97.1547 116.79 96.3879 118.468L96.2581 118.398C96.3782 117.816 95.7769 117.085 96.1471 116.348C96.2439 116.156 96.3957 115.438 96.4554 115.188L97.5053 114.183Z" fill="#56575C"/>
<path d="M142.382 169.867C149.216 175.64 153.5 181.28 158.452 188.65C159.426 190.098 160.944 191.773 161.593 193.268L161.421 193.659C159.964 194.162 156.364 192.277 155.493 191.092C155.459 190.406 155.478 190.431 155.676 189.765C154.981 188.142 153.231 188.067 151.874 188.846C152.722 190.431 154.193 191.63 154.409 193.654C151.637 190.138 142.109 173.962 142.382 169.867Z" fill="#DCDBDC"/>
<path d="M90.575 125.5C91.536 124.779 94.0589 124.791 95.7175 124.356L97.8775 127.092L98.9896 126.668C101.351 130.202 103.317 132.053 105.687 135.185L104.655 136.263C104.055 138.355 103.602 140.218 103.118 142.343C102.205 141.01 100.504 139.266 99.3898 138.026C95.5709 133.779 92.8993 130.762 90.575 125.5Z" fill="#DCDBDC"/>
<path d="M98.9896 126.668C101.351 130.202 103.317 132.053 105.687 135.185L104.655 136.263C103.859 134.252 99.4072 128.902 97.8774 127.092L98.9896 126.668Z" fill="#56575C"/>
<path d="M90.5749 125.5C89.0812 121.521 92.7262 116.107 95.3686 113.275C95.4286 114.465 95.3926 114.472 96.4555 115.188C96.3957 115.438 96.2439 116.156 96.1471 116.348C95.777 117.085 96.3782 117.816 96.2582 118.398L96.388 118.468C95.6967 123.398 97.0232 122.651 98.9896 126.668L97.8775 127.092L95.7175 124.356C94.0589 124.791 91.536 124.779 90.5749 125.5Z" fill="#89898A"/>
<path d="M103.582 105.724L105.136 105.605L105.465 105.933C105.231 106.361 105.168 106.296 105.174 106.675C105.354 106.619 106.708 105.843 106.958 105.703L107.639 106.156L107.71 106.608C107.36 107.005 107.305 107.09 106.903 107.429C104.362 109.778 102.099 112.093 99.6323 114.499C98.8743 115.074 99.2787 114.943 98.4246 115.027L97.5053 114.183L96.4554 115.188C95.3925 114.472 95.4286 114.465 95.3685 113.275C97.4135 110.749 101.052 107.762 103.582 105.724Z" fill="#B7B5B4"/>
<path d="M106.958 105.703L107.639 106.156L107.71 106.608C107.36 107.005 107.306 107.09 106.903 107.429C104.362 109.778 102.099 112.093 99.6324 114.499C98.8744 115.074 99.2787 114.943 98.4247 115.027L97.5054 114.183C100.15 111.772 102.708 109.268 105.174 106.675C105.354 106.619 106.708 105.843 106.958 105.703Z" fill="#444447"/>
<path d="M111.817 100.234C112.494 100.641 114.205 101.497 114.524 102.039C114.733 102.84 114.648 102.946 115.48 103.32C114.782 103.831 112.977 105.046 112.216 105.307C111.125 105.502 109.92 105.595 109.037 106.194L108.721 106.884L108.17 106.896C107.68 107.441 107.672 107.479 107.321 108.131L106.903 107.429C107.305 107.09 107.36 107.005 107.71 106.608L107.639 106.156L106.958 105.703C106.708 105.843 105.354 106.619 105.174 106.675C105.168 106.296 105.231 106.361 105.465 105.933L105.136 105.605L103.582 105.724C105.735 103.864 109.275 101.436 111.817 100.234Z" fill="url(#paint6_linear_9_608)"/>
<path d="M106.958 105.703C110.497 102.39 111.967 103.716 114.524 102.039C114.733 102.84 114.648 102.946 115.48 103.32C114.782 103.831 112.977 105.046 112.216 105.307C111.125 105.502 109.921 105.595 109.037 106.194L108.721 106.884L108.17 106.896C107.68 107.441 107.672 107.479 107.321 108.131L106.903 107.429C107.306 107.09 107.36 107.005 107.71 106.608L107.639 106.156L106.958 105.703Z" fill="#89898A"/>
<path d="M111.817 100.234C113.574 99.1849 117.799 97.117 119.603 98.9497C119.057 100.228 116.214 100.566 115.038 101.844C115.527 102.764 116.91 102.745 117.87 102.829C117.145 102.949 116.138 103.076 115.48 103.32C114.648 102.946 114.733 102.84 114.524 102.039C114.205 101.497 112.494 100.641 111.817 100.234Z" fill="#6B6B6E"/>
<path d="M109.999 137.922C114.992 138.87 116.07 145.943 115.017 150.028C114.338 152.663 113.223 153.646 111.516 155.632C110.631 155.474 108.653 154.067 108.098 153.364C104.213 148.449 105.874 141.854 109.999 137.922Z" fill="white"/>
<path d="M64.5238 109.357C65.4849 109.732 67.2092 111.195 67.8805 111.947C71.9161 116.466 84.2727 127.588 84.3467 133.376C76.8404 127.345 70.8448 118.194 64.8364 110.649C64.5696 110.314 64.5393 109.77 64.5238 109.357Z" fill="url(#paint7_linear_9_608)"/>
<path d="M88.8916 125.04C89.2312 126.667 89.7101 128.261 90.1985 129.848C90.9473 130.859 91.452 131.511 92.0697 132.621C91.3394 133.264 90.6139 133.911 89.8927 134.563L89.0249 134.754C86.6298 133.803 88.4487 127.042 88.8916 125.04Z" fill="#6B6B6E"/>
<path d="M90.1985 129.848C90.9472 130.859 91.4519 131.511 92.0696 132.621C91.3394 133.264 90.6139 133.911 89.8926 134.563C89.6948 132.586 89.6898 131.763 90.1985 129.848Z" fill="#56575C"/>
<path d="M146.815 345.386C147.329 345.366 147.834 345.384 148.336 345.371C150.63 345.311 150.896 348.697 149.533 349.764L149.096 349.419C147.151 347.555 145.498 347.801 144.687 346.561C145.339 345.777 145.777 345.792 146.815 345.386Z" fill="#89898A"/>
<path d="M146.337 269.583C148.159 269.949 149.019 271.321 149.991 272.776C149.948 274.111 149.793 275.371 149.649 276.695L149.148 276.735C147.799 275.756 146.263 271.328 146.337 269.583Z" fill="#89898A"/>
<path d="M145.813 202.172C147.241 202.084 148.7 202.364 150.12 202.575C149.959 204.401 149.815 206.179 149.558 207.994C148.746 207.398 146.895 204.651 146.164 203.742C145.582 203.018 145.673 202.845 145.813 202.172Z" fill="#89898A"/>
<path d="M82.5083 324.84C83.5194 325.136 85.7092 325.694 86.0803 326.671L85.3223 327.089C84.9059 327.229 84.488 327.362 84.0684 327.492C83.0713 327.79 82.9402 327.846 82.1717 327.425C81.8741 326.536 82.2342 325.769 82.5083 324.84Z" fill="#89898A"/>
<path d="M234.64 0.478134C235.47 0.337299 238.248 -0.200519 238.873 0.0796967C242.079 1.51473 245.406 9.07508 249.055 10.7047C255.529 13.596 264.427 9.4446 272.35 9.74571C284.794 10.2188 297.359 16.5856 308.966 13.9039C310.84 13.4421 319.099 10.6472 319.272 13.9518C319.462 17.5927 316.456 25.9688 315.223 29.4254C312.87 36.8975 313.6 41.8606 312.352 48.9049C311.579 53.2849 307.145 61.5868 305.23 66.1363C303.752 69.6445 302.033 76.1964 300.733 79.067C300.075 81.5581 299.452 84.0593 298.869 86.569C309.956 86.2223 315.858 82.6712 323.693 91.7359C321.838 92.0735 316.343 92.7181 315.526 94.3502C317.666 95.9618 319.329 95.1558 320.092 97.7535C319.897 98.6692 320.129 98.3158 319.384 98.859C317.771 99.0836 315.385 98.6454 313.492 98.6832C315.553 102.56 315.996 102.791 319.664 105.275C316.766 105.259 314.137 105.422 311.379 106.434C313.21 108.499 315.068 110.54 316.953 112.553C315.108 112.796 310.02 113.179 309.005 114.391C309.943 115.642 313.865 116.203 313.885 119.49L313.69 119.889C312.792 119.977 311.646 119.242 310.831 118.773C309.513 119.416 308.523 119.747 307.612 120.88C307.007 123.453 311.001 122.581 311.604 125.163C311.396 125.661 311.408 125.952 311.011 126.012C309.065 126.306 306.585 126.056 304.539 126.239C306.327 129.216 306.822 130.515 310.088 131.846L311.416 132.397L310.926 132.512C308.145 133.151 305.346 133.347 302.508 133.612C302.736 135.164 307.699 138.297 307.858 140.041C306.837 140.464 304.584 139.912 303.411 139.691C302.006 140.806 301.69 141.106 300.527 142.494C302.586 143.44 303.762 143.901 305.372 145.555L305.52 146.072C304.104 147.231 294.213 144.286 302.128 151.747C302.671 152.253 303.216 152.753 303.769 153.246C296.841 154.03 291.077 151.898 284.475 151.65C260.781 150.76 236.152 145.441 212.6 145.39C212.406 138.742 214.748 127.897 215.665 120.682C216.215 116.356 217.256 105.893 218.068 102.114C218.081 100.661 218.58 96.9034 218.774 95.274C219.471 89.3917 219.815 83.4881 221.583 77.8131C222.582 74.3605 225.191 70.2301 225.738 66.7379C226.706 60.567 224.19 54.3343 225.381 47.9293C226.269 41.8195 230.636 36.8207 232.526 31.151C235.66 21.7515 234.45 10.3354 234.64 0.478134ZM296.851 35.5875C291.294 30.673 278.254 32.6717 271.029 33.1393C268.261 33.1012 264.4 33.4856 261.581 33.6949C254.434 34.2256 247.999 34.1144 242.505 39.444C240.684 41.2002 239.271 43.3356 238.363 45.6988C233.599 60.1648 244.378 67.0615 257.275 66.607C265.947 66.3015 273.2 65.3335 281.535 62.7818C286.97 61.1182 292.387 61.1236 296.576 56.6207C301.138 52.1493 301.645 39.829 296.851 35.5875Z" fill="white"/>
<path d="M296.279 77.5185C298.032 76.4906 296.569 71.9797 301.403 75.1062C301.308 76.7371 300.542 77.683 300.512 78.8974L300.733 79.0672C300.075 81.5583 299.452 84.059 298.869 86.5686C309.956 86.222 315.858 82.6713 323.693 91.736C321.837 92.0736 316.343 92.718 315.525 94.3501C317.666 95.9619 319.329 95.1555 320.092 97.7534C319.897 98.6692 320.129 98.3158 319.384 98.8591C317.771 99.0837 315.385 98.6449 313.492 98.6827C315.553 102.56 315.995 102.791 319.664 105.275C316.766 105.258 314.137 105.423 311.379 106.435C313.209 108.5 315.068 110.54 316.953 112.554C315.108 112.796 310.021 113.179 309.005 114.391C309.943 115.642 313.865 116.203 313.885 119.49L313.69 119.889C312.792 119.977 311.646 119.242 310.831 118.773C309.513 119.416 308.523 119.747 307.612 120.88C307.007 123.453 311.001 122.581 311.604 125.163C311.396 125.661 311.409 125.952 311.011 126.012C309.065 126.306 306.585 126.056 304.539 126.239C306.327 129.217 306.822 130.515 310.088 131.846L311.416 132.397L310.926 132.512C308.145 133.151 305.347 133.347 302.508 133.612C302.736 135.164 307.7 138.297 307.858 140.041C306.837 140.465 304.584 139.912 303.411 139.691C302.005 140.806 301.69 141.106 300.527 142.493C302.586 143.44 303.761 143.901 305.372 145.555L305.519 146.072C304.104 147.231 294.213 144.286 302.128 151.747C302.671 152.254 303.216 152.753 303.769 153.246C296.841 154.03 291.077 151.898 284.474 151.65C260.781 150.76 236.152 145.441 212.6 145.39C212.406 138.741 214.748 127.896 215.665 120.682C216.215 116.356 217.256 105.893 218.069 102.114L218.255 103.723C218.589 101.966 218.25 100.755 219.581 99.4944C220.465 99.1173 221.607 99.5185 222.723 99.6146C222.995 101.833 221.868 103.608 222.565 105.706C222.52 108.896 222.179 112.873 221.947 116.105C225.615 116.392 234.617 117.522 238.046 118.337C240.672 114.535 242.637 111.723 246.133 108.629C248.999 106.809 249.685 106.378 252.848 105.388C255.584 104.532 263.097 104.704 264.695 103.722L264.665 103.43C263.507 103.004 261.964 103.032 260.694 102.969C261.491 102.727 262.227 102.543 263.037 102.343C262.609 102.112 259.581 102.171 258.68 102.102C258.67 101.171 258.533 101.566 259.025 100.852C260.328 100.12 261.251 100.064 262.752 100.142L263.022 100.159C262.477 100.024 260.964 99.956 260.328 99.9097C262.877 99.4706 270.359 99.4894 273.821 99.1476C274.793 95.6198 276.747 91.4495 279.115 88.6305C277.289 87.4615 275.524 85.7272 274.056 84.1336C274.531 82.0775 274.866 80.5525 275.584 78.5833C275.386 83.7467 275.944 85.2972 280.756 88.0405C284.802 87.9318 288.866 87.4647 292.887 87.0377C294.21 83.9696 294.983 80.3479 296.279 77.5185Z" fill="#343331"/>
<path d="M234.639 0.478458C235.47 0.33771 238.248 -0.200734 238.873 0.0797603C242.079 1.51479 245.406 9.07511 249.054 10.7047C255.529 13.5963 264.427 9.44476 272.35 9.74604C284.794 10.2191 297.359 16.5853 308.965 13.9036C309.706 14.0824 311.939 15.2735 312.344 16.0486C312.892 17.0952 311.984 17.7955 311.889 18.9605C306.044 20.5538 294.64 21.046 288.608 20.5769C281.008 19.9858 271.185 18.4494 263.654 19.9079C263.907 19.1331 263.664 19.0124 263.82 18.39L266.258 17.9034C265.768 17.5678 265.232 17.7148 264.497 17.7191C267.253 17.1751 273.383 17.1413 276.514 17.0249C278.76 16.0697 279.312 16.7181 281.756 16.4331L281.901 16.1904C281.103 15.6332 278.21 15.9244 276.531 15.0006C259.756 12.3449 249.402 25.5524 238.331 4.97588C239.946 13.0852 239.478 28.4638 235.782 35.9647C233.609 40.372 231.013 43.8897 230.145 49.0137C229.157 54.85 231.058 61.4126 230.525 66.9994C230.135 71.0721 226.271 76.27 225.382 81.106C224.239 87.3175 223.919 93.3055 223.232 99.5761C223.043 101.29 222.885 104.103 222.565 105.706C221.868 103.608 222.994 101.833 222.723 99.6146C221.607 99.5185 220.465 99.1173 219.581 99.4944C218.25 100.755 218.588 101.966 218.255 103.723L218.068 102.114C218.081 100.662 218.581 96.9034 218.774 95.274C219.471 89.3916 219.815 83.488 221.583 77.813C222.582 74.3604 225.191 70.2301 225.739 66.738C226.707 60.5671 224.19 54.3344 225.381 47.9293C226.269 41.8196 230.635 36.821 232.526 31.1513C235.66 21.7517 234.449 10.3358 234.639 0.478458Z" fill="url(#paint8_linear_9_608)"/>
<path d="M276.532 15.0005C278.36 15.0474 283.614 15.3249 284.977 16.255C284.389 17.2232 277.945 17.0577 276.514 17.0249C278.76 16.0697 279.313 16.7181 281.756 16.4331L281.901 16.1904C281.103 15.6332 278.21 15.9244 276.532 15.0005Z" fill="#B7B5B4"/>
<path d="M308.966 13.9036C310.839 13.4421 319.099 10.6469 319.272 13.9517C319.462 17.5926 316.456 25.9684 315.223 29.425C312.869 36.8974 313.6 41.8606 312.352 48.9053C311.579 53.2852 307.145 61.5866 305.229 66.1361C303.751 69.6443 302.033 76.1966 300.733 79.0672L300.513 78.8974C300.543 77.683 301.308 76.7371 301.403 75.1062C296.569 71.9797 298.032 76.4906 296.279 77.5185C297.229 72.2349 300.593 65.4717 302.571 60.3627C303.731 57.3672 306.77 52.1124 307.337 49.1482C308.873 41.1146 308.663 34.436 311.001 26.3117C311.181 24.1825 312.072 21.757 312.229 19.3435L311.889 18.9605C311.984 17.7955 312.892 17.0952 312.344 16.0486C311.939 15.2735 309.706 14.0824 308.966 13.9036Z" fill="#020202"/>
<path d="M308.965 13.9036C310.839 13.4421 319.099 10.6469 319.272 13.9517C319.462 17.5926 316.456 25.9684 315.223 29.425L314.963 28.165C315.66 27.2466 316.281 23.9709 316.873 22.5997C317.341 21.5148 316.961 19.6264 316.301 18.5067C315.928 18.2648 315.768 18.0211 315.313 18.083C310.794 18.6973 313.144 24.3217 311.001 26.3117C311.181 24.1825 312.072 21.757 312.229 19.3435L311.889 18.9605C311.984 17.7955 312.892 17.0952 312.344 16.0486C311.939 15.2735 309.706 14.0824 308.965 13.9036Z" fill="#343331"/>
<path d="M244.11 106.384L243.555 106.764L243.262 106.662C243.325 105.607 244.36 104.613 245.018 103.818C248.592 99.5009 255.297 99.9335 260.328 99.9097C260.964 99.956 262.477 100.024 263.022 100.159L262.752 100.142C261.251 100.064 260.328 100.12 259.025 100.852C258.533 101.566 258.67 101.171 258.68 102.102C259.581 102.171 262.609 102.112 263.037 102.343C262.226 102.543 261.491 102.727 260.693 102.969C253.766 103.25 249.519 101.315 244.11 106.384Z" fill="#020202"/>
<path d="M244.11 106.384C249.52 101.315 253.766 103.25 260.693 102.969C261.964 103.032 263.507 103.004 264.665 103.43L264.695 103.722C263.097 104.704 255.584 104.532 252.848 105.388C249.685 106.378 248.999 106.809 246.133 108.629C247.239 105.056 256.735 104.617 257.917 103.853C256.172 103.386 253.603 103.665 251.858 103.444C248.687 103.044 246.441 106.065 244.11 106.384Z" fill="#DCDBDC"/>
<path d="M264.497 17.7191C265.233 17.7148 265.768 17.5678 266.258 17.9034L263.82 18.39C263.665 19.0124 263.907 19.1331 263.655 19.9079C260.764 20.5491 259.818 20.6109 256.857 20.4794C258.025 19.9988 263.565 17.9588 264.497 17.7191Z" fill="#020202"/>
<path d="M271.03 33.1395C278.255 32.6719 291.294 30.6729 296.851 35.5878C301.645 39.8293 301.138 52.149 296.576 56.6204C292.387 61.1233 286.97 61.1186 281.536 62.7823C273.2 65.334 265.948 66.3012 257.275 66.6068C244.378 67.0613 233.599 60.1651 238.363 45.6992C239.831 45.5687 240.536 46.0971 241.182 47.4365C239.784 50.2018 239.751 54.105 241.742 56.6081C245.053 60.8967 250.46 61.8191 255.644 61.3743C266.415 60.4499 277.719 59.2806 288.431 57.9693C297.674 56.838 300.317 43.7898 294.545 37.0289C289.171 33.2462 278.172 34.6692 271.595 35.1744C270.752 34.6322 270.444 34.4178 270.154 33.5926C270.542 33.4421 270.704 33.3637 271.03 33.1395Z" fill="#020202"/>
<path d="M238.363 45.6991C239.271 43.3357 240.684 41.2005 242.505 39.4441C247.999 34.1142 254.434 34.2252 261.581 33.6945C264.4 33.4851 268.261 33.1014 271.029 33.1395C270.704 33.3636 270.542 33.442 270.154 33.5926C270.444 34.4178 270.752 34.6321 271.595 35.1743C278.172 34.6692 289.171 33.2462 294.545 37.0289C293.53 37.8122 293.757 37.8786 292.67 38.0143L290.026 38.1416C276.684 40.5891 262.481 41.4684 249.002 42.921C245.618 43.2856 243.05 44.4747 241.182 47.4364C240.536 46.0971 239.831 45.5686 238.363 45.6991Z" fill="url(#paint9_linear_9_608)"/>
<path d="M271.595 35.1744C278.172 34.6692 289.171 33.2462 294.545 37.0289C293.53 37.8122 293.758 37.8786 292.67 38.0144L290.026 38.1416L289.389 37.2019C286.628 37.5112 270.85 37.7486 269.194 36.1932L269.362 35.7609C270.269 35.3697 270.605 35.3469 271.595 35.1744Z" fill="url(#paint10_linear_9_608)"/>
<path d="M289.389 37.2019C290.902 37.0802 291.504 37.0091 292.67 38.0143L290.026 38.1416L289.389 37.2019Z" fill="#6B6B6E"/>
<path d="M250.2 82.104C250.88 82.9768 250.495 84.7234 251.956 85.4902C253.043 86.1043 254.074 86.1439 255.264 85.8574C256.965 85.4487 256.705 84.5103 257.773 83.503L258.003 83.7324L257.75 84.6027C256.905 86.0698 256.602 86.9418 254.827 87.4439C251.753 88.3142 247.747 85.2401 250.2 82.104Z" fill="#19191C"/>
<path d="M230.178 102.944C235.557 105.326 233.656 104.355 238.438 104.033C238.233 104.671 237.84 104.833 237.248 105.358C235.86 106.207 234.742 106.436 233.179 106.872C232.624 106.414 232.083 105.938 231.556 105.444C230.533 104.489 230.225 104.208 230.178 102.944Z" fill="#19191C"/>
<path d="M277.042 84.0141C278.245 83.9192 280.758 83.5674 281.688 84.1945L281.728 84.8669C280.17 85.2704 278.225 85.2889 277.042 84.0141Z" fill="#444447"/>
<path d="M157.787 54.4871C161.034 52.5622 166.719 51.132 170.472 51.74C172.135 52.0093 174.098 55.5179 174.963 56.9362C179.829 64.9087 183.645 73.7002 187.331 82.2423C193.224 95.9374 198.555 109.868 203.31 124C205.128 129.488 208.14 138.387 208.659 143.957C203.961 143.672 199.269 143.581 194.575 143.183C193.641 143.104 190.41 142.559 189.775 142.628C186.772 143.25 185.923 140.353 181.457 141.484C180.967 142.236 181.065 144.194 181.225 145.022C184.896 145.95 207.408 146.751 209.644 148.283C212.643 148.725 216.212 148.785 219.42 149.189C234.772 151.124 250.307 152.441 265.723 154.021L293.16 156.954C297.754 157.465 304.631 158.442 309.14 158.566C310.291 156.676 312.136 152.503 312.969 151.313L313.309 151.528C314.09 150.666 314.407 149.301 314.927 148.209C315.87 148.762 316.643 149.045 317.068 150C317.046 151.65 315.95 151.964 316.645 153.024C313.497 160.727 310.128 168.242 306.414 175.685C305.942 176.632 304.441 180.281 303.926 180.869C303.723 180.736 303.181 180.13 302.953 179.902C301.915 178.38 301.523 177.433 301.205 175.632C301.838 175.219 301.863 174.969 302.195 174.277C299.905 173.353 294.218 172.8 291.582 172.479C287.65 173.772 261.004 169.128 255.166 169.266C251.39 169.354 245.511 168.758 241.754 167.949C238.858 167.18 234.122 167.35 232.696 170.458L232.944 170.664C233.666 170.588 233.656 170.561 234.329 170.258L234.814 170.426C238.613 171.705 253.386 171.094 255.894 172.852C258.1 173.363 264.122 173.802 266.685 174.037C271.95 174.495 277.204 175.084 282.441 175.798C288.278 176.564 291.139 176.574 295.838 180.496L295.418 180.581C292.87 181.079 290.071 180.944 288.045 181.413C287.63 183.411 292.247 185.823 292.177 188.159C290.456 188.933 287.053 186.927 286.567 188.322C285.247 192.109 290.009 191.25 290.199 193.591C288.618 194.491 285.452 193.591 284.019 195.169C283.491 197.541 287.365 199.875 289.158 200.834C286.337 201.363 280.518 203.306 278.177 203.274C267.438 203.121 256.8 201.493 245.976 201.34C245.668 200.181 245.643 199.742 244.94 198.816L244.42 198.565C243.247 199.229 243.322 200.153 243.09 201.45C242.184 201.2 241.144 201.045 240.561 200.371C240.511 198.643 243.492 197.133 239.181 195.956C235.68 195.633 231.406 194.941 227.952 194.253C223.324 193.334 217.659 191.603 212.992 191.26C212.792 193.484 212.815 196.659 212.552 198.648L212.099 198.698C211.193 196.905 211.16 195.405 209.194 195.625C209.101 196.061 208.77 197.606 208.415 197.646C205.879 197.949 199.281 197.04 197.007 196.517C195.4 191.315 194.101 188.74 191.635 183.854C186.672 175.277 182.051 169.815 172.924 165.617C164.676 161.825 160.593 157.983 154.376 151.582C149.653 146.714 150.164 147.049 144.62 143.394C142.628 142.517 140.911 141.803 138.872 141.048L137.536 139.595C139.316 138.879 139.854 138.579 141.204 137.213L141.277 136.636L142.08 136.169L143.439 136.08C144.641 135.836 144.694 135.584 145.582 134.683C146.791 135.656 147.073 135.957 148.626 136.206C149.148 135.245 149.226 135.441 149.195 134.502L148.718 134.117C150.991 132.291 153.692 129.831 155.315 127.401C159.004 121.878 158.701 119.383 165.037 116.358C166.999 115.779 168.148 115.672 170.132 115.84L170.469 115.462C170.064 114.691 169.813 114.377 169.302 113.695C168.924 112.263 167.561 109.097 166.961 107.627C165.456 103.987 163.972 100.339 162.509 96.682C163.14 96.6349 163.259 96.6775 163.824 96.4203C163.523 95.6825 163.468 95.536 163.468 94.6995C163.435 93.8906 162.986 92.0293 162.787 91.1875L162.193 90.7177C161.665 91.3373 161.395 91.8745 160.941 92.5307C160.292 90.6924 159.552 88.8056 158.864 86.9746C157.288 82.8892 156.022 77.9472 154.833 73.6677C153.823 70.2927 153.064 66.7936 152.681 63.2874C152.195 58.8415 153.974 56.4604 157.787 54.4871Z" fill="#343331"/>
<path d="M218.839 178.921C222.526 180.16 227.274 181.104 231.118 181.946L246.956 185.45C249.842 186.076 255.062 187.095 257.75 188.077C258.098 190.468 258.065 191.348 257.79 193.812C255.604 193.937 253.001 194.155 250.843 194.107C248.317 194.506 243.908 194.223 241.252 194.102L238.626 194.305L238.233 194.866L237.928 194.628C238.268 195.207 238.228 195.179 238.841 195.445L239.181 195.956C235.68 195.633 231.406 194.941 227.952 194.253C223.324 193.334 217.659 191.603 212.992 191.26L213.048 191.087C213.923 191.075 214.302 191.059 215.164 190.932C214.646 189.432 215.513 189.722 215.565 188.78C215.996 188.58 216.913 188.48 217.429 188.395C218.069 187.558 217.956 188.002 217.906 187.052L216.605 186.011C215.776 185.893 215.769 185.953 215.095 185.49V185.112C217.236 184.015 217.445 184.701 217.984 182.274C218.275 181.16 218.56 180.04 218.839 178.921Z" fill="#DCDBDC"/>
<path d="M216.605 186.011C221.034 186.261 225.44 186.812 229.795 187.664C235.227 188.347 240.677 189.602 246.131 190.383C245.228 192.895 240.089 190.318 237.818 192.254C238.233 193.945 239.786 193.639 241.252 194.102L238.626 194.305L238.233 194.866L237.928 194.628C238.268 195.207 238.228 195.179 238.841 195.445L239.181 195.956C235.68 195.633 231.406 194.941 227.952 194.253C223.324 193.334 217.659 191.603 212.992 191.26L213.048 191.087C213.923 191.075 214.302 191.06 215.164 190.932C214.646 189.432 215.513 189.722 215.565 188.781C215.996 188.58 216.913 188.48 217.429 188.395C218.069 187.558 217.956 188.002 217.906 187.052L216.605 186.011Z" fill="url(#paint11_linear_9_608)"/>
<path d="M216.605 186.011C221.034 186.261 225.44 186.812 229.795 187.664C229.55 188.397 229.513 188.352 228.945 188.903C226.073 188.109 222.263 188.903 219.281 189.349L219.024 189.269C219.357 188.73 219.237 188.786 219.293 188.044C218.908 187.29 219.192 187.511 218.499 187.258C218.267 187.937 218.301 188.072 217.803 188.555L217.429 188.395C218.069 187.558 217.955 188.002 217.906 187.052L216.605 186.011Z" fill="#444447"/>
<path d="M219.281 189.349C222.264 188.903 226.073 188.109 228.945 188.903C229.828 189.314 229.765 189.119 230.195 189.812C229.177 191.578 221.358 190.827 219.512 190.145C219.223 189.604 219.279 189.875 219.281 189.349Z" fill="#89898A"/>
<path d="M246.131 190.383C247.361 190.566 248.934 190.834 250.025 191.45C248.829 193.526 247.014 191.758 245.531 192.217C245.721 192.913 245.756 193.116 245.576 193.812C246.991 193.837 249.59 193.759 250.843 194.107C248.317 194.506 243.908 194.223 241.252 194.102C239.786 193.639 238.233 193.945 237.818 192.254C240.089 190.318 245.228 192.895 246.131 190.383Z" fill="#B7B5B4"/>
<path d="M155.327 150.686L157.459 151.383C159.742 152.847 160.918 155.394 162.714 157.206C164.535 159.252 177.501 165.938 180.972 168.137C181.598 167.721 181.476 167.819 182.21 167.558C188.815 164.912 190.492 169.744 196.066 171.55L196.538 172.364L196.318 172.762C195.319 172.88 194.539 172.359 193.254 172.279C195.511 173.301 197.645 173.218 199.267 173.989C201.263 176.005 202.467 179.567 203.464 180.25L203.903 180.994C203.21 182.417 199.108 181.776 197.524 181.823C198.358 181.971 199.11 182.099 199.932 182.302C198.589 182.277 195.614 182.064 194.534 182.407C194.826 183.596 198.703 182.76 199.88 183.238C197.204 184.125 193.493 182.933 191.635 183.854C186.673 175.277 182.051 169.815 172.924 165.617C164.676 161.825 160.593 157.983 154.376 151.582C154.618 151.221 154.98 150.976 155.327 150.686Z" fill="#020202"/>
<path d="M197.524 181.823C194.075 181.54 192.854 181.255 190.488 178.517C187.103 174.603 185.604 168.615 193.254 172.279C195.511 173.301 197.645 173.218 199.267 173.989C201.263 176.005 202.467 179.567 203.464 180.25L203.903 180.994C203.21 182.417 199.108 181.776 197.524 181.823Z" fill="#DCDBDC"/>
<path d="M180.972 168.137C181.598 167.721 181.476 167.819 182.21 167.558C184.045 169.324 186.642 168.199 188.207 169.231C188.315 170.386 186.896 171.252 186.044 171.956C184.361 170.571 182.557 169.479 180.972 168.137Z" fill="#DCDBDC"/>
<path d="M165.412 149.323C169.826 153.731 179.863 159.18 185.509 162.34C186.168 162.708 189.782 164.701 190.358 164.898C191.349 165.652 192.528 166.478 193.378 167.363C194.346 168.209 196.585 169.812 196.635 171.104C196.466 171.245 196.245 171.442 196.066 171.55C190.492 169.744 188.815 164.912 182.21 167.558C181.476 167.819 181.598 167.721 180.972 168.137C177.501 165.938 164.535 159.252 162.714 157.206L163.019 156.973C165.974 155.188 164.348 150.965 165.412 149.323Z" fill="white"/>
<path d="M157.787 54.4871L159.567 54.3158L159.245 54.5668C158.753 54.9575 158.639 55.138 158.259 55.6334C159.076 55.3053 159.798 54.8683 160.601 55.0674C162.9 56.692 164.756 62.0815 165.521 64.747C165.044 65.1905 155.622 71.8793 155.643 71.8725C155.414 72.7443 155.412 72.9519 154.833 73.6677C153.823 70.2927 153.064 66.7936 152.681 63.2874C152.195 58.8415 153.974 56.4604 157.787 54.4871Z" fill="white"/>
<path d="M157.787 54.4871L159.567 54.3158L159.245 54.5668C158.753 54.9575 158.639 55.138 158.259 55.6334C151.987 60.1263 154.436 65.2195 155.643 71.8725C155.414 72.7443 155.412 72.9519 154.833 73.6677C153.823 70.2927 153.064 66.7936 152.681 63.2874C152.195 58.8415 153.974 56.4604 157.787 54.4871Z" fill="#020202"/>
<path d="M179.998 135.748C180.752 136.816 180.656 138.563 180.769 140.041C181.483 140.004 183.653 139.675 184.251 139.167C185.029 139.544 185.722 140.023 186.475 139.764C186.962 140.585 186.929 140.625 187.119 141.526L189.775 142.628C186.772 143.25 185.923 140.353 181.457 141.484C180.967 142.236 181.065 144.194 181.225 145.022C184.896 145.95 207.408 146.751 209.644 148.283C203.305 148.358 193.203 145.878 186.223 146.044C183.843 146.101 162.559 143.522 161.549 142.988L161.653 142.661C166.425 140.025 171.049 139.95 175.831 137.566C177.186 136.891 178.598 136.315 179.998 135.748Z" fill="#DCDBDC"/>
<path d="M184.251 139.167C185.029 139.544 185.722 140.023 186.475 139.764C186.962 140.585 186.929 140.625 187.119 141.526C185.327 140.868 184.125 140.416 182.156 140.758C181.585 140.857 181.554 140.909 180.976 140.729L180.769 140.041C181.483 140.004 183.653 139.675 184.251 139.167Z" fill="#56575C"/>
<path d="M191.375 163.526L191.449 163.031C192.499 163.043 195.226 163.366 196.344 163.517C198.018 163.743 205.096 163.391 206.168 163.999C206.139 165.493 206.223 170.223 206.511 171.618L205.662 172.159L205.429 172.126C204.186 172.041 202.509 172.109 201.232 172.121L201.361 172.394L201.337 173.333C200.553 173.979 200.451 173.802 199.267 173.989C197.645 173.218 195.511 173.301 193.254 172.279C194.539 172.359 195.319 172.88 196.318 172.762L196.538 172.364L196.066 171.55C196.245 171.442 196.465 171.245 196.635 171.104C196.584 169.812 194.346 168.209 193.378 167.363C192.528 166.478 191.349 165.652 190.358 164.898C190.769 164.229 190.854 164.114 191.375 163.526Z" fill="white"/>
<path d="M191.375 163.526C192.313 164.141 193.761 165.622 194.299 165.833C199.898 167.921 198.879 170.771 201.232 172.121L201.361 172.394L201.337 173.333C200.553 173.979 200.451 173.802 199.267 173.989C197.645 173.218 195.511 173.301 193.254 172.279C194.539 172.359 195.319 172.88 196.318 172.762L196.538 172.364L196.066 171.55C196.245 171.442 196.465 171.245 196.635 171.104C196.584 169.812 194.346 168.209 193.378 167.363C192.528 166.478 191.349 165.652 190.358 164.898C190.769 164.229 190.854 164.113 191.375 163.526Z" fill="#19191C"/>
<path d="M255.894 172.852C252.638 172.86 248.904 171.971 245.633 171.856C236.953 171.553 228.472 170.538 219.916 169.043C218.962 168.875 218.713 168.918 218.202 168.154C218.077 167.055 218.139 166.942 218.39 165.837C220.149 164.978 253.431 168.602 258.703 169.068C269.669 170.133 280.63 171.27 291.582 172.479C287.65 173.772 261.004 169.128 255.167 169.266C251.39 169.354 245.511 168.758 241.754 167.949C238.858 167.18 234.122 167.35 232.696 170.458L232.944 170.664C233.666 170.588 233.656 170.561 234.329 170.258L234.814 170.426C238.613 171.705 253.386 171.094 255.894 172.852Z" fill="#DCDBDC"/>
<path d="M166.055 93.6486C167.127 95.0326 172.094 107.08 173.173 109.539C172.966 111.016 172.712 112.806 171.931 114.077C171.193 113.173 171.187 113.089 170.796 111.962C170.454 113.059 170.502 112.974 169.302 113.695C168.924 112.263 167.561 109.097 166.961 107.627C165.456 103.987 163.972 100.339 162.509 96.682C163.14 96.6349 163.259 96.6775 163.824 96.4203C163.523 95.6825 163.468 95.536 163.468 94.6995C164.122 95.426 164.828 96.2016 165.353 97.0314C165.387 95.6063 165.597 95.0033 166.055 93.6486Z" fill="#DCDBDC"/>
<path d="M163.468 94.6995C164.122 95.426 164.828 96.2016 165.353 97.0314C165.971 102.052 169.333 107.222 170.796 111.962C170.454 113.059 170.502 112.974 169.302 113.695C168.924 112.263 167.561 109.097 166.961 107.627C165.456 103.987 163.972 100.339 162.509 96.682C163.14 96.6349 163.259 96.6775 163.824 96.4203C163.523 95.6825 163.468 95.536 163.468 94.6995Z" fill="url(#paint12_linear_9_608)"/>
<path d="M173.173 109.539L173.894 110.955C174.596 112.628 175.899 115.925 175.255 117.683C174.403 120.007 170.91 119.347 170.665 121.579C170.53 122.811 170.783 124.681 170.815 125.995L165.471 125.889C165.466 124.76 165.116 118.585 165.426 118.013C165.474 117.121 165.419 117.131 165.037 116.358C166.999 115.779 168.148 115.672 170.132 115.84L170.469 115.462C170.064 114.691 169.814 114.377 169.302 113.695C170.502 112.974 170.455 113.059 170.796 111.962C171.187 113.089 171.193 113.173 171.931 114.077C172.712 112.806 172.966 111.016 173.173 109.539Z" fill="#DCDBDC"/>
<path d="M170.796 111.962C171.187 113.089 171.193 113.173 171.931 114.077C172.645 114.807 172.62 114.763 173.006 115.706L173.034 115.932C173.179 116.694 173.383 117.19 173.045 117.859C171.604 118.742 168.295 117.374 166.437 117.952C166.418 117.958 165.484 118.01 165.426 118.013C165.474 117.121 165.419 117.131 165.037 116.358C166.999 115.779 168.148 115.672 170.132 115.84L170.469 115.462C170.064 114.691 169.814 114.377 169.302 113.695C170.502 112.974 170.455 113.059 170.796 111.962Z" fill="url(#paint13_linear_9_608)"/>
<path d="M170.796 111.962C171.187 113.089 171.193 113.173 171.931 114.077C172.645 114.807 172.62 114.763 173.005 115.706L173.034 115.932C172.224 116.129 170.88 116.27 170.132 115.84L170.469 115.462C170.064 114.691 169.813 114.377 169.302 113.695C170.502 112.974 170.454 113.059 170.796 111.962Z" fill="#343331"/>
<path d="M173.173 109.539L173.894 110.955C173.619 112.223 173.085 114.457 173.006 115.706C172.62 114.763 172.645 114.807 171.931 114.077C172.712 112.806 172.966 111.016 173.173 109.539Z" fill="#B7B5B4"/>
<path d="M206.168 163.999C207.21 164.152 207.996 164.297 209.065 164.285C210.532 164.275 215.777 164.135 216.005 166.571C216.174 168.372 213.556 170.841 213.107 172.584C212.568 174.215 212.998 175.542 212.352 176.632L211.923 176.689C210.525 175.014 212.087 170.183 209.444 168.908C207.506 169.294 209.265 171.625 206.694 172.432C206.307 172.344 206.029 172.304 205.662 172.159L206.511 171.618C206.224 170.223 206.139 165.493 206.168 163.999Z" fill="#B7B5B4"/>
<path d="M206.168 163.999C207.21 164.152 207.996 164.297 209.064 164.285C208.337 164.649 208.199 164.529 207.982 165.23C207.568 166.569 207.852 170.924 206.705 171.638L206.511 171.618C206.223 170.223 206.139 165.493 206.168 163.999Z" fill="#444447"/>
<path d="M163.4 148.252L163.736 148.613L164.763 148.569C165.027 148.845 165.233 149.004 165.412 149.323C164.348 150.965 165.974 155.188 163.019 156.973L162.714 157.206C160.918 155.394 159.742 152.847 157.459 151.383C158.088 151.02 158.092 151.03 158.8 150.845C159.756 150.013 162.185 148.826 163.4 148.252Z" fill="#DCDBDC"/>
<path d="M163.4 148.252L163.736 148.613L164.763 148.569C165.027 148.845 165.233 149.004 165.412 149.323C164.348 150.965 165.974 155.188 163.019 156.973C162.763 155.972 163.491 151.011 163.64 149.541C161.785 150.381 160.868 150.919 158.8 150.845C159.756 150.013 162.185 148.826 163.4 148.252Z" fill="#444447"/>
<path d="M206.661 189.504C207.27 189.397 207.882 189.369 208.501 189.321C210.213 189.429 212.449 188.988 213.256 189.825C213.208 190.549 213.262 190.413 213.048 191.087L212.992 191.26C212.792 193.484 212.815 196.659 212.552 198.648L212.099 198.698C211.193 196.905 211.16 195.405 209.194 195.625C209.212 194.869 209.17 195.167 209.57 194.44C208.299 193.354 207.374 192.793 207.052 191.147C206.934 190.944 206.717 189.782 206.661 189.504Z" fill="url(#paint14_linear_9_608)"/>
<path d="M212.114 191.182C212.742 191.067 212.451 191.027 212.992 191.26C212.792 193.484 212.815 196.659 212.552 198.648L212.099 198.698C211.193 196.905 211.16 195.405 209.194 195.625C209.212 194.869 209.17 195.167 209.57 194.44C210.229 194.621 210.002 194.583 210.688 194.566C211.572 193.884 211.805 192.329 212.114 191.182Z" fill="#444447"/>
<path d="M207.052 191.147C208.707 191.34 210.461 191.498 212.114 191.182C211.805 192.329 211.572 193.884 210.688 194.566C210.002 194.583 210.229 194.621 209.57 194.44C208.299 193.354 207.374 192.793 207.052 191.147Z" fill="#DCDBDC"/>
<path d="M206.643 186.532C208.854 186.544 210.824 186.629 213.068 186.574C214.921 186.514 216.069 186.649 217.906 187.052C217.956 188.002 218.069 187.558 217.429 188.395C216.913 188.48 215.996 188.58 215.565 188.781C215.513 189.722 214.647 189.432 215.164 190.932C214.302 191.06 213.923 191.075 213.048 191.087C213.262 190.413 213.209 190.549 213.256 189.825C212.449 188.988 210.213 189.429 208.501 189.321C207.882 189.369 207.271 189.397 206.661 189.504L206.519 189.382C206.156 188.713 206.514 187.363 206.643 186.532Z" fill="#DCDBDC"/>
<path d="M208.501 189.321C210.298 189.003 213.251 189.119 215.565 188.781C215.513 189.722 214.646 189.432 215.164 190.932C214.302 191.06 213.923 191.075 213.048 191.087C213.262 190.413 213.208 190.549 213.256 189.825C212.449 188.988 210.213 189.429 208.501 189.321Z" fill="#444447"/>
<path d="M142.08 136.169L143.439 136.08C144.372 136.446 144.439 136.511 145.244 137.135L145.589 137.839L144.578 138.502L145.629 139.171C145.498 139.471 145.367 139.771 145.236 140.071C144.892 140.738 144.271 140.921 143.694 141.393C144.137 142.463 144.351 142.404 144.814 143.238L144.62 143.394C142.628 142.517 140.911 141.803 138.872 141.048L137.536 139.595C139.316 138.879 139.854 138.579 141.204 137.213L141.277 136.636L142.08 136.169Z" fill="#19191C"/>
<path d="M142.08 136.169L143.439 136.08C144.372 136.446 144.439 136.511 145.244 137.135L145.589 137.839L144.578 138.502C143.435 138.209 143.742 138.324 142.428 138.735C142.337 138.578 141.374 137.422 141.204 137.213L141.277 136.636L142.08 136.169Z" fill="#27282A"/>
<path d="M142.428 138.735C143.742 138.324 143.435 138.209 144.578 138.502L145.629 139.171C145.498 139.471 145.367 139.771 145.236 140.071C144.332 140.33 144.124 140.462 143.203 140.222C142.505 139.533 142.724 139.783 142.428 138.735Z" fill="#A2A2A1"/>
<path d="M159.466 144.968L160.442 145.248C162.555 145.849 163.515 145.872 163.4 148.252C162.185 148.826 159.756 150.013 158.8 150.845C158.092 151.03 158.088 151.02 157.459 151.383L155.327 150.686C155.212 148.683 157.926 146.095 159.466 144.968Z" fill="#DCDBDC"/>
<path d="M180.61 132.54C180.77 131.492 180.776 130.595 181.41 129.795L181.887 129.791C182.608 130.594 182.741 131.445 183.054 132.501C183.109 133.078 183.169 133.654 183.234 134.23C183.567 134.363 183.578 134.397 183.928 134.445C182.093 136.611 182.174 137.209 184.251 139.167C183.653 139.675 181.483 140.004 180.769 140.041C180.656 138.563 180.752 136.816 179.998 135.748C180.038 136.105 180.617 132.503 180.61 132.54Z" fill="#444447"/>
<path d="M180.61 132.54C180.77 131.492 180.777 130.595 181.41 129.795L181.887 129.791C182.608 130.594 182.741 131.445 183.055 132.501C183.019 132.729 182.981 132.956 182.941 133.184C182.774 134.118 182.695 134.897 181.902 135.444L181.394 135.231C180.722 134.337 180.755 133.678 180.61 132.54Z" fill="#DCDBDC"/>
<path d="M162.8 90.8479C162.63 89.2364 162.592 89.2809 163.623 88.168C164.134 89.4327 165.33 92.6544 166.055 93.6486C165.597 95.0033 165.387 95.6063 165.353 97.0313C164.828 96.2016 164.122 95.426 163.468 94.6995C163.435 93.8905 162.986 92.0293 162.787 91.1875L162.8 90.8479Z" fill="#B7B5B4"/>
<path d="M201.361 172.394C201.618 173.063 201.62 173.083 202.029 173.669L202.939 174.027C203.427 175.995 203.504 177.904 203.836 179.9L203.464 180.25C202.466 179.567 201.263 176.005 199.267 173.989C200.451 173.802 200.553 173.979 201.337 173.333L201.361 172.394Z" fill="#27282A"/>
<path d="M160.182 84.4912C161.104 87.7803 161.926 88.2834 162.8 90.8479L162.787 91.1875L162.193 90.7177C161.666 91.3373 161.395 91.8745 160.941 92.5307C160.292 90.6924 159.552 88.8056 158.865 86.9746C159.298 86.1436 159.737 85.3159 160.182 84.4912Z" fill="#19191C"/>
<path d="M145.582 134.683C146.791 135.656 147.073 135.957 148.626 136.206C149.578 136.052 149.636 135.867 150.319 136.224C150.053 136.903 149.538 137.307 148.847 137.649C148.274 138.08 148.172 138.103 147.534 138.446C146.598 138.541 146.399 138.321 145.589 137.839L145.244 137.135C144.439 136.511 144.372 136.447 143.439 136.08C144.641 135.836 144.694 135.584 145.582 134.683Z" fill="#B7B5B4"/>
<path d="M145.244 137.135C147.341 137.952 147.609 136.92 148.848 137.649C148.274 138.08 148.172 138.103 147.534 138.446C146.598 138.541 146.399 138.321 145.589 137.839L145.244 137.135Z" fill="#DCDBDC"/>
<path d="M205.038 173.253C205.585 173.852 205.487 173.516 205.445 174.348C205.365 175.923 205.299 178.415 204.532 179.835C204.338 179.857 204.015 179.915 203.836 179.9C203.504 177.904 203.427 175.995 202.939 174.027C203.76 173.338 203.982 173.346 205.038 173.253Z" fill="#DCDBDC"/>
<path d="M160.182 84.4912L160.78 83.1877L161.053 83.1243C162.025 84.7923 162.73 86.4637 163.623 88.168C162.592 89.2809 162.63 89.2364 162.8 90.848C161.926 88.2834 161.104 87.7803 160.182 84.4912Z" fill="#89898A"/>
<path d="M184.251 139.167C182.174 137.209 182.093 136.611 183.928 134.445L186.475 139.764C185.722 140.023 185.029 139.544 184.251 139.167Z" fill="#DCDBDC"/>
<path d="M213.068 186.574C214.99 185.242 214.675 182.72 217.983 182.274C217.445 184.701 217.235 184.015 215.095 185.112V185.49C215.769 185.953 215.775 185.893 216.605 186.011L217.906 187.052C216.069 186.649 214.921 186.514 213.068 186.574Z" fill="#56575C"/>
<path d="M302.196 174.277C302.303 177.415 304.419 175.998 302.953 179.902C301.916 178.38 301.523 177.433 301.205 175.632C301.838 175.219 301.863 174.969 302.196 174.277Z" fill="#DCDBDC"/>
<path d="M192.872 183.869C196.537 183.812 206.027 183.153 208.476 186.016C205.978 186.401 197.655 185.923 194.999 185.773C193.916 185.021 193.717 184.874 192.872 183.869Z" fill="#DCDBDC"/>
<path d="M363.957 175.332C369.497 167.05 375.078 158.801 380.705 150.581C383.126 147.05 385.367 143.415 387.735 139.929C391.229 135.248 393.627 130.599 395.538 125.115C396.176 123.285 399.262 118.628 398.519 116.903C395.055 108.873 386.815 103.975 378.422 102.54C376.154 102.151 371.025 98.3256 370.464 96.1172C369.316 90.5757 373.663 86.3092 376.381 82.2713C379.8 77.1961 382.564 75.8628 388.186 79.234C393.665 82.5198 395.476 88.6964 400.512 92.2985C404.276 94.9632 410.046 95.3068 413.96 96.8881C427.309 102.279 436.415 118.053 438.923 131.68C441.107 143.524 440.174 161.9 434.232 172.384C434.644 162.335 433.686 135.586 421.937 132.774C417.331 131.671 403.483 154.532 400.923 158.314C395.736 165.973 390.406 173.719 385.26 181.418C384.014 183.288 378.65 192.279 377.352 193.409C376.041 195.317 375.058 196.644 374.303 198.858C375.579 200.995 382.401 210.366 382.699 211.293C381.631 212.127 366.656 211.14 364.21 210.997L363.927 210.759L364.05 210.206C364.052 205.946 368.159 203.299 369.111 200.631C368.441 200.574 365.843 200.494 365.403 200.837C363.997 201.934 361.566 206.609 360.048 207.125L359.738 207.286C358.37 209.414 354.839 211.711 352.818 209.267C352.205 206.677 358.485 197.581 360.213 194.092C360.941 193.131 362.472 190.391 363.154 189.261L368.801 180.068L369.011 178.963C368.336 179.737 368.474 180.2 367.083 180.283C366.438 179.842 366.278 179.386 365.903 178.698C365.98 178.174 366 177.666 365.998 177.138L365.995 176.832C365.125 175.943 364.527 175.945 363.957 175.332Z" fill="#020202"/>
<path d="M399.252 135.102C401.958 137.001 406.817 140.289 409.621 142.063C405.267 149.844 399.339 156.39 394.248 163.574C390.644 168.66 387.37 174.257 383.739 179.359C381.033 183.762 379.45 187.941 376.324 192.372C376.024 193.171 375.869 193.601 375.666 194.428C376.269 194.105 376.837 193.672 377.352 193.409C376.041 195.317 375.058 196.644 374.303 198.858C375.579 200.994 382.401 210.366 382.699 211.293C381.631 212.127 366.656 211.14 364.21 210.997L363.927 210.759L364.05 210.206C364.052 205.946 368.159 203.299 369.111 200.631C368.441 200.574 365.843 200.494 365.403 200.837C363.997 201.934 361.566 206.609 360.048 207.125L359.738 207.286C358.37 209.414 354.839 211.711 352.818 209.267C352.205 206.677 358.485 197.581 360.213 194.092C360.941 193.131 362.472 190.391 363.154 189.261L368.801 180.068L369.011 178.963C368.336 179.737 368.474 180.2 367.083 180.283C366.438 179.842 366.278 179.386 365.903 178.698C365.98 178.174 366 177.666 365.998 177.137L365.995 176.832C371.827 166.727 381.011 153.258 389.068 144.999L389.496 144.253C389.504 143.34 389.203 143.369 389.266 142.317C391.907 142.186 395.321 134.795 397.971 136.122L398.172 136.066L399.252 135.102Z" fill="url(#paint15_linear_9_608)"/>
<path d="M369.709 181.069C370.704 179.654 373.323 175.62 374.648 174.949L375.076 175.527C376.544 175.377 376.216 174.465 377.009 174.783C376.176 177.08 374.888 178.44 374.001 180.463C373.06 182.61 372.628 186.865 371.705 188.888C370.592 191.33 367.488 194.473 365.74 196.692C363.107 200.033 360.488 203.389 357.85 206.717C357.447 206.875 357.075 207.023 356.665 207.163C357.75 207.08 358.74 206.895 359.738 207.286C358.37 209.414 354.839 211.711 352.818 209.267C352.205 206.677 358.485 197.581 360.213 194.092C360.941 193.131 362.472 190.391 363.154 189.261L368.801 180.068C369.201 180.468 369.396 180.614 369.709 181.069Z" fill="#DCDBDC"/>
<path d="M368.801 180.068C369.201 180.468 369.396 180.614 369.709 181.069C366.408 186.131 363.439 191.6 360.663 196.97C359.42 199.377 356.129 204.513 356.665 207.163C357.75 207.08 358.74 206.895 359.738 207.286C358.37 209.414 354.839 211.711 352.818 209.267C352.205 206.677 358.485 197.581 360.213 194.092C360.941 193.131 362.472 190.391 363.154 189.261L368.801 180.068Z" fill="url(#paint16_linear_9_608)"/>
<path d="M376.324 192.372C376.024 193.171 375.869 193.602 375.666 194.428C376.269 194.105 376.837 193.672 377.352 193.409C376.041 195.317 375.059 196.644 374.303 198.858C375.579 200.995 382.401 210.366 382.699 211.293C381.631 212.127 366.656 211.14 364.21 210.997L363.927 210.759L364.05 210.206C366.238 205.713 370.725 199.161 373.843 195.147C373.936 195.087 376.124 192.59 376.324 192.372Z" fill="#343331"/>
<path d="M389.266 142.317C391.907 142.186 395.321 134.795 397.972 136.122L398.172 136.066C399.49 136.234 399.257 136.002 400.085 136.74C400.49 138.649 398.504 140.253 397.767 142.519C398.077 143.911 397.639 144.472 397.021 145.911C396.256 147.465 393.965 149.925 392.795 151.528C392.457 150.631 392.512 150.997 392.89 149.899C391.639 150.377 388.506 149.546 387.748 148.345C387.32 147.671 388.778 146.146 389.069 144.999L389.496 144.253C389.504 143.34 389.204 143.369 389.266 142.317Z" fill="#DCDBDC"/>
<path d="M389.266 142.317C391.907 142.186 395.321 134.795 397.972 136.122C396.586 137.576 390.907 143.541 389.496 144.253C389.504 143.34 389.203 143.369 389.266 142.317Z" fill="#444447"/>
<path d="M397.766 142.519C398.077 143.911 397.639 144.472 397.021 145.911C396.256 147.465 393.965 149.925 392.795 151.528C392.457 150.631 392.512 150.997 392.89 149.899C393.94 147.899 396.221 145.41 397.766 142.519Z" fill="#B7B5B4"/>
<path d="M397.021 145.911C397.914 145.209 397.957 145.199 399.067 144.889C399.835 145.145 399.54 144.906 399.93 145.685C399.97 148.26 397.922 151.103 396.826 153.402C395.806 155.546 394.923 157.925 393.815 159.994C393.31 160.28 393.485 160.249 392.942 160.336C392.692 159.111 392.43 158.408 392.022 157.241C391.397 155.16 392.005 153.385 392.795 151.528C393.965 149.925 396.256 147.465 397.021 145.911Z" fill="#DCDBDC"/>
<path d="M360.048 207.125C361.301 204.844 369.552 194.325 371.702 193.04L371.947 193.161C370.705 194.13 367.208 197.383 367.326 198.876C368.556 198.918 368.809 199.019 369.769 199.705C370.9 198.846 371.672 196.286 373.528 194.661L373.843 195.147C370.725 199.161 366.238 205.713 364.05 210.206C364.052 205.946 368.159 203.299 369.112 200.631C368.441 200.574 365.843 200.494 365.403 200.837C363.997 201.934 361.566 206.609 360.048 207.125Z" fill="#DCDBDC"/>
<path d="M392.942 160.336C392.437 160.649 392.715 160.531 391.984 160.478C391.044 159.48 391.179 158.27 392.022 157.241C392.43 158.408 392.692 159.111 392.942 160.336Z" fill="#6B6B6E"/>
<path d="M395.903 132.184C396.831 133.087 398.237 134.23 399.252 135.102L398.172 136.066L397.972 136.122C395.321 134.795 391.907 142.186 389.266 142.317C390.997 138.346 393.502 135.749 395.903 132.184Z" fill="#B7B5B4"/>
<path d="M387.768 84.7272C388.788 83.9656 388.928 83.9052 389.646 82.8922C394.745 87.1301 396.751 94.5445 404.506 96.1806C405.419 96.3737 407.042 96.3046 407.53 96.8595C406.034 98.2062 405.717 97.7837 404.479 99.7048C403.929 100.364 403.991 100.359 403.196 100.647C403.879 101.34 404.059 101.609 404.521 102.471C405.209 102.079 405.066 102.127 405.572 101.665C407.372 100.023 409.796 99.111 412.056 98.3479C426.897 102.7 437.26 123.678 438.356 138.271C438.718 143.124 438.453 153.788 437.365 158.624C437.428 159.607 437.165 160.764 436.84 161.689L436.588 161.674C436.022 159.888 435.965 157.385 435.852 155.48C435.565 154.796 435.107 150.834 434.922 149.879C433.539 142.758 432.349 134.633 428.157 128.556C422.9 120.934 417.711 132.159 414.537 135.775C413.259 137.23 412.447 138.33 410.954 139.695C407.12 137.155 398.489 131.617 395.456 128.763C396.066 126.847 397.489 124.316 398.629 122.675C402.356 117.311 401.92 113.099 401.568 106.825C399.815 105.565 397.104 104.058 395.168 102.803C391.027 100.089 386.923 97.3156 382.859 94.4836C380.213 97.1601 380.293 97.6206 380.075 101.443C374.398 98.4386 368.859 96.0018 373.886 88.8442C374.468 88.0147 375.129 86.9874 375.986 86.451C377.022 85.5431 376.792 85.4319 377.837 85.4149C378.96 85.9521 379.563 87.0437 380.718 88.0152C382.081 88.9879 382.669 89.3804 383.844 90.585C384.747 89.2616 385.262 88.0044 386.95 87.7881C388.036 88.2328 388.083 88.3776 389.071 87.8947C388.503 86.7122 388.208 85.9661 387.768 84.7272Z" fill="white"/>
<path d="M387.768 84.7272C388.788 83.9656 388.928 83.9052 389.646 82.8922C394.746 87.1301 396.751 94.5445 404.506 96.1806C405.419 96.3737 407.042 96.3046 407.53 96.8595C406.034 98.2062 405.717 97.7837 404.479 99.7048C401.085 96.5357 397.774 95.7919 394.148 93.1462C392.835 92.1891 390.637 89.3851 389.329 88.1374L389.071 87.8947C388.503 86.7122 388.208 85.9661 387.768 84.7272Z" fill="url(#paint17_linear_9_608)"/>
<path d="M389.071 87.8948L389.328 88.1374C390.636 89.3851 392.835 92.1891 394.148 93.1463C397.774 95.7919 401.085 96.5357 404.479 99.7048C403.929 100.364 403.991 100.359 403.196 100.647C397.819 98.42 390.464 92.5607 386.95 87.7881C388.035 88.2328 388.083 88.3776 389.071 87.8948Z" fill="url(#paint18_linear_9_608)"/>
<path d="M375.986 86.4509C377.022 85.5431 376.792 85.4319 377.837 85.4149C378.96 85.9521 379.563 87.0437 380.718 88.0152C380.018 88.8291 380.243 88.3593 380.135 89.5251C379.595 89.4956 379.555 89.2742 379.037 88.7981C377.869 88.0067 377.579 87.7853 376.607 86.772L375.986 86.4509Z" fill="#B7B5B4"/>
<path d="M376.607 86.772C377.957 86.8188 378.439 87.1365 379.189 88.3062C379.094 88.7525 379.192 88.6119 379.037 88.7974C377.869 88.0062 377.579 87.7849 376.607 86.772Z" fill="#27282A"/>
<path d="M435.852 155.48C436.985 156.93 435.91 157.556 437.365 158.624C437.428 159.607 437.165 160.764 436.84 161.689L436.587 161.674C436.022 159.888 435.965 157.385 435.852 155.48Z" fill="#DCDBDC"/>
<path d="M382.306 96.7338C386.74 100.191 391.965 101.444 395.471 106.73C397.254 108.56 397.584 109.551 398.299 112.037C396.879 110.845 396.286 110.258 395.043 108.879C391.037 104.744 387.943 103.525 382.496 102.348C382.054 100.114 382.171 98.9853 382.306 96.7338Z" fill="#DCDBDC"/>
<path d="M395.471 106.73C397.254 108.56 397.584 109.551 398.299 112.037C396.878 110.845 396.286 110.258 395.043 108.879L395.746 108.815L395.993 108.401L395.471 106.73Z" fill="#DCDBDC"/>
<path d="M423.781 127.437C426.672 127.695 428.27 132.601 428.647 135.05L426.744 133.151C424.083 130.516 423.581 130.444 419.974 130.722C421.43 129.295 422.147 128.63 423.781 127.437Z" fill="#DCDBDC"/>
<path d="M382.794 79.6637C384.444 79.5565 388.143 80.4744 388.148 82.4647C387.618 83.0815 387.408 83.0557 386.623 83.3004C385.112 82.9673 380.851 82.823 380.961 81.0139C381.493 80.2335 381.953 80.0972 382.794 79.6637Z" fill="#DCDBDC"/>
<path d="M343.918 84.2005C344.998 82.0652 348.502 73.5995 350.392 73.0298C351.855 72.5885 364.457 78.9988 366.17 80.218C366.471 80.4316 367.048 80.794 367.053 81.1842C367.073 82.5403 346.459 126.867 344.308 131.353C341.172 137.9 337.56 144.315 334.797 151.026L333.737 149.868C329.358 158.77 325.369 167.788 321.052 176.561C319.372 179.672 318.194 182.817 316.836 186.056C316.388 187.125 314.51 186.857 313.52 186.83L311.894 186.907C309.191 187.606 303.554 184.358 303.926 180.869C304.441 180.281 305.942 176.632 306.415 175.685C310.128 168.242 313.497 160.727 316.646 153.024C315.95 151.964 317.046 151.65 317.068 150C316.643 149.045 315.87 148.762 314.928 148.209C314.407 149.301 314.09 150.666 313.309 151.528L312.969 151.313C315.713 144.803 319.409 138.033 322.185 131.552C324.786 125.475 326.664 120.481 329.708 114.53C331.221 110.862 333.687 105.947 335.402 102.242C338.091 96.1573 340.929 90.1417 343.918 84.2005Z" fill="white"/>
<path d="M343.918 84.2005C344.998 82.0652 348.502 73.5995 350.393 73.0298C351.856 72.5885 364.457 78.9988 366.171 80.218C366.471 80.4316 367.048 80.794 367.053 81.1842C367.073 82.5403 346.459 126.867 344.308 131.353C341.172 137.9 337.561 144.315 334.797 151.026L333.737 149.868C334.72 147.59 336.308 144.525 337.08 142.329C337.05 140.784 336.913 140.164 336.618 138.688C336.663 138.607 337.035 136.04 337.471 134.926C336.99 134.503 336.773 134.115 336.398 133.589C337.443 131.204 338.463 128.807 339.459 126.399C339.926 125.029 343.495 118.218 344.428 116.271C345.366 114.17 346.124 112.388 347.306 110.401C348.567 110.759 348.497 110.688 348.99 111.999C349.262 111.474 349.435 110.881 349.63 110.315C349.58 108.209 350.403 107.521 351.873 106.236C352.028 105.553 352.298 104.311 352.563 103.697C353.254 102.108 354.266 101.338 354.574 99.5818C354.589 99.1944 354.669 97.2722 354.734 97.1603C356.512 93.9897 357.615 94.2725 357.255 90.0961L357.305 89.7856C357.723 89.5882 358.025 89.3919 358.39 89.1081C357.032 87.4099 352.216 85.0883 349.977 85.0577C348.454 84.9498 347.229 84.5393 345.786 84.4985L345.376 84.8959C344.676 85.1632 345.016 85.1476 344.32 84.9899L343.918 84.2005Z" fill="#020202"/>
<path d="M347.306 110.401C348.567 110.759 348.497 110.688 348.989 111.999C349.262 111.474 349.434 110.881 349.629 110.315C349.549 111.869 349.349 112.189 350.215 113.29L350.752 113.489C349.249 117.121 347.451 120.364 345.901 123.869C343.11 130.181 340.316 136.222 337.08 142.329C337.05 140.784 336.913 140.164 336.617 138.688C336.662 138.607 337.035 136.04 337.47 134.926C336.99 134.503 336.772 134.115 336.397 133.589C337.443 131.204 338.463 128.807 339.458 126.399C339.926 125.029 343.495 118.218 344.428 116.271C345.365 114.17 346.123 112.388 347.306 110.401Z" fill="url(#paint19_linear_9_608)"/>
<path d="M347.306 110.401C348.567 110.759 348.497 110.688 348.99 111.999C346.841 113.844 347.684 115.583 346.234 117.482L346.216 117.352C345.361 117.441 344.891 117.02 344.428 116.271C345.366 114.17 346.124 112.388 347.306 110.401Z" fill="#A2A2A1"/>
<path d="M339.458 126.399C340.471 128.003 340.291 128.002 339.909 129.964C339.516 131.986 338.588 133.279 337.47 134.926C336.99 134.503 336.772 134.115 336.397 133.589C337.443 131.204 338.463 128.807 339.458 126.399Z" fill="#89898A"/>
<path d="M361.759 84.4274C360.911 85.1249 359.978 86.0387 358.968 86.3475C357.19 85.9879 351.6 76.8703 351.703 74.6815C352.668 74.2622 355.799 76.2991 356.912 76.8595C359.891 78.3544 362.899 79.7875 365.935 81.1576C362.427 84.9806 363.389 85.6455 361.571 90.0583C359.976 93.9349 357.792 98.0854 356.004 101.934C354.861 101.101 354.856 100.926 354.574 99.5818C354.589 99.1944 354.669 97.2723 354.734 97.1603C356.512 93.9897 357.615 94.2725 357.255 90.0961L357.305 89.7856C357.722 89.5882 358.025 89.3919 358.39 89.1081C358.625 89.5504 358.753 89.8604 359.053 90.2476L359.523 90.2349C359.856 89.1838 359.756 88.9118 359.643 87.7748C360.346 86.5977 360.961 85.5491 361.759 84.4274Z" fill="#DCDBDC"/>
<path d="M354.574 99.5818C354.856 100.926 354.861 101.101 356.004 101.934C354.344 105.955 352.626 109.575 350.752 113.489L350.215 113.29C349.349 112.189 349.55 111.869 349.63 110.315C349.58 108.209 350.402 107.521 351.873 106.236C352.028 105.553 352.298 104.311 352.563 103.697C353.253 102.108 354.266 101.338 354.574 99.5818Z" fill="#DCDBDC"/>
<path d="M348.577 78.5277L348.934 78.7394C349.802 80.964 350.09 82.8694 347.576 83.7817C345.826 82.5451 347.726 80.1255 348.577 78.5277Z" fill="#DCDBDC"/>
<path d="M331.176 149.85C331.993 146.464 334.504 142.579 335.61 139.118C335.737 138.72 336.057 138.794 336.618 138.688C336.913 140.164 337.05 140.784 337.08 142.329C336.307 144.525 334.719 147.59 333.737 149.868C329.358 158.77 325.369 167.788 321.052 176.561C319.372 179.672 318.194 182.817 316.836 186.056C316.388 187.125 314.51 186.857 313.519 186.83L311.894 186.907C312.001 183.491 316.563 175.985 318.166 172.041C320.314 167.338 323.408 160.454 325.871 156.06C327.317 153.717 328.515 151.021 329.66 148.506C330.245 149.504 330.06 149.193 331.176 149.85Z" fill="url(#paint20_linear_9_608)"/>
<path d="M311.894 186.907C312.001 183.491 316.563 175.985 318.166 172.041C318.691 172.462 319.359 172.847 319.307 173.674C319.091 177.085 314.122 183.649 313.519 186.83L311.894 186.907Z" fill="#A2A2A1"/>
<path d="M325.871 156.06C327.317 153.717 328.515 151.021 329.66 148.506C330.245 149.504 330.06 149.194 331.176 149.85C330.24 151.961 328.98 155.722 327.144 156.855L326.486 156.869C326.294 156.589 326.121 156.294 325.871 156.06Z" fill="#89898A"/>
<path d="M329.708 114.53L330.04 114.203C330.633 113.616 330.738 113.099 331.501 112.771L331.306 113.006L331.386 113.358C331.053 114.484 330.783 115.334 330.583 116.501C328.31 122.364 327.785 122.99 327.287 129.079C323.673 137.209 320.417 144.857 316.646 153.024C315.95 151.964 317.046 151.65 317.068 150C316.643 149.045 315.87 148.762 314.928 148.209C314.407 149.301 314.09 150.666 313.309 151.528L312.969 151.313C315.713 144.803 319.409 138.033 322.185 131.552C324.786 125.475 326.664 120.481 329.708 114.53Z" fill="#020202"/>
<path d="M337.323 101.894C337.94 101.397 338.198 100.957 338.876 100.488L339.604 100.994L339.006 102.478C336.645 108.096 334.377 113.602 331.661 119.071C330.775 120.85 328.69 124.868 328.955 126.725C328.525 127.374 327.797 128.552 327.287 129.079C327.784 122.99 328.31 122.364 330.583 116.501C330.783 115.334 331.053 114.484 331.386 113.358L331.306 113.006L331.501 112.771C330.738 113.099 330.633 113.616 330.04 114.203L329.708 114.53C331.221 110.862 333.686 105.947 335.402 102.242L335.622 103.04L335.98 103.185C336.317 102.769 336.487 102.436 337.038 102.31L337.323 101.894Z" fill="#DCDBDC"/>
<path d="M335.402 102.242L335.622 103.04L335.98 103.185C336.317 102.769 336.488 102.436 337.038 102.31C336.35 104.617 331.928 114.348 330.583 116.501C330.783 115.334 331.053 114.484 331.386 113.358L331.306 113.006L331.501 112.771C330.738 113.099 330.633 113.616 330.04 114.203L329.708 114.53C331.221 110.862 333.687 105.947 335.402 102.242Z" fill="#27282A"/>
<path d="M343.917 84.2005L344.32 84.9898C345.015 85.1476 344.675 85.1632 345.375 84.8959C345.02 86.3224 344.58 88.3067 344.115 89.6548C344.383 91.9634 343.67 93.2103 344.125 94.5359C343.917 95.0801 343.637 96.0118 343.287 96.3947C342.334 96.56 342.374 96.3689 341.734 97.4105C341.031 98.5523 340.251 99.8258 339.603 100.994L338.876 100.488C338.198 100.956 337.94 101.397 337.323 101.894L337.038 102.31C336.487 102.436 336.317 102.769 335.98 103.185L335.622 103.04L335.402 102.241C338.09 96.1573 340.929 90.1417 343.917 84.2005Z" fill="#343331"/>
<path d="M344.115 89.6548C344.383 91.9634 343.67 93.2104 344.125 94.5359C343.918 95.0801 343.637 96.0118 343.287 96.3947C342.335 96.56 342.375 96.3689 341.734 97.4105C341.032 98.5523 340.251 99.8258 339.604 100.994L338.876 100.488C338.198 100.957 337.94 101.397 337.323 101.894C339.001 98.1681 343.397 91.9056 344.115 89.6548Z" fill="url(#paint21_linear_9_608)"/>
<path d="M357.255 90.0961C357.615 94.2725 356.512 93.9897 354.734 97.1603C354.669 97.2723 354.589 99.1944 354.574 99.5818C354.266 101.338 353.253 102.108 352.563 103.697C352.298 104.311 352.028 105.553 351.873 106.236C350.402 107.521 349.58 108.209 349.63 110.315C349.435 110.881 349.262 111.474 348.989 111.999C348.497 110.688 348.567 110.759 347.306 110.401C348.924 107.458 350.547 104.6 351.945 101.542C353.403 98.3564 355.272 92.9123 357.255 90.0961Z" fill="#56575C"/>
<path d="M339.006 102.478C338.953 103.537 338.911 103.775 338.506 104.755L338.628 105.249C338.986 105.456 338.808 105.372 339.158 105.509L339.278 105.652C336.43 112.754 332.644 120.028 328.955 126.725C328.69 124.868 330.776 120.85 331.661 119.071C334.377 113.602 336.645 108.096 339.006 102.478Z" fill="#56575C"/>
<path d="M336.397 133.589C336.773 134.115 336.99 134.503 337.47 134.926C337.035 136.04 336.662 138.607 336.617 138.688C336.057 138.794 335.737 138.72 335.61 139.118C334.504 142.579 331.993 146.464 331.176 149.85C330.06 149.194 330.245 149.504 329.66 148.506C331.623 143.787 334.272 138.568 336.397 133.589Z" fill="#6B6B6E"/>
<path d="M345.376 84.8959L345.786 84.4985C347.229 84.5393 348.454 84.9498 349.977 85.0577C349.284 86.4194 349.029 86.9446 348.071 88.1913C347.669 89.0119 347.294 89.8617 346.766 90.6025C345.806 91.898 344.845 93.0904 344.125 94.5359C343.67 93.2103 344.383 91.9634 344.115 89.6548C344.58 88.3067 345.02 86.3225 345.376 84.8959Z" fill="url(#paint22_linear_9_608)"/>
<path d="M346.766 90.6016C346.176 89.4427 346.263 88.7467 347.458 88.0262L348.071 88.1912C347.668 89.0116 347.293 89.8611 346.766 90.6016Z" fill="#A2A2A1"/>
<path d="M339.604 100.994C340.251 99.8258 341.032 98.5523 341.734 97.4105C342.375 96.3689 342.335 96.56 343.287 96.3947C342.047 99.521 340.709 102.608 339.278 105.652L339.158 105.509C338.808 105.372 338.986 105.456 338.628 105.249L338.506 104.755C338.911 103.775 338.953 103.537 339.006 102.478L339.604 100.994Z" fill="#6B6B6E"/>
<path d="M333.737 149.868L334.797 151.026C333.792 153.046 330.603 158.657 331.136 160.623C331.866 161.174 331.451 160.961 332.531 161.06C333.827 161.044 335.14 161.174 336.255 160.582L336.375 160.07C336.025 159.314 335.867 159.303 335.177 158.836C334.974 158.261 334.952 158.076 335.207 157.472C335.835 155.984 338.131 154.904 339.569 154.508C341.357 154.015 343.44 154.104 345.028 155.142C348.127 157.167 358.718 174.964 361.321 179.241C362.176 177.884 362.957 176.587 363.957 175.332C364.527 175.945 365.125 175.943 365.995 176.832L365.998 177.138C363.937 180.786 361.741 184.36 359.421 187.849C358.41 189.369 355.404 193.659 354.704 195.069C352.923 196.795 348.269 205.768 345.498 209.031C342.129 209.041 336.928 208.453 333.484 208.142C326.689 207.491 319.892 206.905 313.087 206.384C315.995 197.771 321.76 188.405 324.968 179.777C325.131 178.563 325.651 178.891 325.099 177.498C324.343 177.077 323.283 177.153 322.375 177.125C322.172 177.543 321.842 178.38 321.53 178.62L321.245 178.184C321.412 177.814 321.542 177.488 321.69 177.107L321.052 176.561C325.369 167.789 329.357 158.77 333.737 149.868Z" fill="#343331"/>
<path d="M333.737 149.868L334.797 151.026C333.792 153.046 330.603 158.657 331.136 160.623C331.866 161.174 331.451 160.961 332.531 161.06C334.242 161.321 340.797 162.011 342.512 162.114C346.536 164.96 348.634 167.753 346.709 172.928C345.661 175.743 343.955 178.244 340.684 178.452C336.628 178.685 325.749 175.111 322.375 177.125C322.173 177.543 321.843 178.38 321.53 178.62L321.245 178.184C321.412 177.814 321.542 177.488 321.69 177.107L321.052 176.561C325.369 167.789 329.358 158.77 333.737 149.868Z" fill="#343331"/>
<path d="M335.177 158.836C338.861 159.744 341.807 159.943 345.293 160.715C347.416 162.447 349.337 165.232 349.48 167.904C349.812 174.062 346.586 181.235 339.486 181.097C336.785 181.044 334.292 181.062 331.608 180.719C330.425 180.631 325.566 179.632 324.969 179.777C325.131 178.563 325.651 178.891 325.099 177.498C324.343 177.077 323.283 177.153 322.375 177.125C325.749 175.111 336.628 178.685 340.684 178.452C343.955 178.244 345.661 175.743 346.709 172.928C348.634 167.753 346.536 164.96 342.512 162.114C340.797 162.011 334.242 161.321 332.531 161.06C333.827 161.044 335.14 161.174 336.255 160.582L336.375 160.07C336.025 159.314 335.867 159.303 335.177 158.836Z" fill="url(#paint23_linear_9_608)"/>
<path d="M301.205 175.632C301.523 177.433 301.915 178.38 302.953 179.902C303.181 180.13 303.724 180.736 303.926 180.869C303.554 184.358 309.191 187.606 311.894 186.907L313.52 186.83C314.51 186.857 316.388 187.125 316.836 186.056C318.194 182.817 319.372 179.672 321.052 176.561L321.69 177.107C321.542 177.488 321.412 177.814 321.245 178.184L321.53 178.62C320.585 181.024 318.706 187.611 316.073 188.142C307.517 189.862 308.338 199.276 304.807 204.816C304.176 205.808 304.159 205.938 303.203 206.294C301.268 205.67 302.276 203.559 299.432 203.942C295.603 204.944 293.7 204.744 289.986 203.865C293.295 199.031 301.083 191.235 301.76 185.307C301.963 183.541 300.05 179.256 299.972 176.714C300.36 175.84 300.142 176.138 301.205 175.632Z" fill="url(#paint24_linear_9_608)"/>
<path d="M299.432 203.942C300.037 202.244 302.238 197.661 304.576 199.61C305.076 201.743 302.28 203.722 302.195 205.244C303.083 205.67 304.009 205.232 304.806 204.816C304.176 205.808 304.159 205.938 303.203 206.294C301.268 205.67 302.276 203.559 299.432 203.942Z" fill="#6B6B6E"/>
<path d="M145.893 159.276L147.408 158.315C153.792 167.488 159.619 177.02 165.995 186.193C167.311 188.087 168.119 190.761 169.384 192.65L170.369 193.717C170.226 194.132 170.074 194.493 169.91 194.899L169.523 195.027C167.3 192.858 164.64 187.724 162.771 184.991C156.961 176.499 151.893 167.658 145.893 159.276Z" fill="#020202"/>
<path d="M365.998 177.137C366 177.666 365.98 178.174 365.903 178.698C366.278 179.386 366.438 179.842 367.083 180.283C368.474 180.2 368.336 179.737 369.011 178.963L368.801 180.068L363.154 189.261C362.472 190.391 360.941 193.131 360.213 194.092C360.916 191.172 363.565 187.388 365.103 184.718C365.778 183.546 367.226 183.045 367.286 181.267C366.636 180.483 365.815 180.681 364.8 180.501C364.76 180.581 364.722 180.664 364.682 180.746C362.452 183.469 357.347 193.486 354.704 195.069C355.404 193.659 358.41 189.369 359.421 187.849C361.741 184.36 363.937 180.786 365.998 177.137Z" fill="#DCDBDC"/>
<path d="M168.871 184.864C169.937 186.336 174.697 192.775 175.172 194.05L175.059 194.388C172.897 194.18 173.039 192.004 171.685 191.39C170.975 191.786 170.739 192.535 170.354 193.301L170.369 193.717L169.384 192.65C170.149 192.144 170.544 191.034 170.967 190.17C170.279 188.956 168.982 187.158 168.164 185.953L168.871 184.864Z" fill="#19191C"/>
<path d="M176.319 172.625C176.926 172.872 179.65 174.636 180.212 175.134C180.434 175.948 180.302 175.778 179.804 176.789C177.051 177.596 175.105 175.532 176.319 172.625Z" fill="#020202"/>
<path d="M145.869 131.416C146.851 132.429 147.601 133.235 148.718 134.117L149.195 134.502C149.226 135.441 149.148 135.245 148.626 136.206C147.073 135.957 146.791 135.656 145.582 134.683C144.888 133.917 144.415 133.206 143.828 132.368L144.691 132.46C145.612 132.062 145.193 132.344 145.869 131.416Z" fill="#27282A"/>
<path d="M153.964 155.402C154.37 155.485 154.148 155.409 154.608 155.691C154.581 158.302 156.667 159.477 155.384 160.735C154.163 160.933 154.341 161.104 153.43 160.665C152.09 158.892 152.614 156.961 153.964 155.402Z" fill="#020202"/>
<path d="M160.941 92.5307C161.395 91.8745 161.665 91.3373 162.193 90.7177L162.787 91.1875C162.986 92.0293 163.435 93.8906 163.468 94.6995C163.468 95.536 163.523 95.6825 163.824 96.4203C163.259 96.6775 163.14 96.6349 162.509 96.682L160.941 92.5307Z" fill="#020202"/>
<path d="M168.164 185.953C167.559 184.966 165.618 181.956 165.597 180.904C166.842 181.911 168.035 183.501 168.871 184.864L168.164 185.953Z" fill="#56575C"/>
<defs>
<linearGradient id="paint0_linear_9_608" x1="362.157" y1="276.169" x2="347.008" y2="273.547" gradientUnits="userSpaceOnUse">
<stop stop-color="#DFC04F"/>
<stop offset="1" stop-color="#BEA865"/>
</linearGradient>
<linearGradient id="paint1_linear_9_608" x1="354.839" y1="290.054" x2="365.676" y2="283.646" gradientUnits="userSpaceOnUse">
<stop stop-color="#716812"/>
<stop offset="1" stop-color="#AE9A27"/>
</linearGradient>
<linearGradient id="paint2_linear_9_608" x1="112.207" y1="117.54" x2="145.98" y2="121.133" gradientUnits="userSpaceOnUse">
<stop stop-color="#B8B7B8"/>
<stop offset="1" stop-color="#DCD9D9"/>
</linearGradient>
<linearGradient id="paint3_linear_9_608" x1="51.9466" y1="174.513" x2="46.3405" y2="189.474" gradientUnits="userSpaceOnUse">
<stop stop-color="#A4A29F"/>
<stop offset="1" stop-color="#C2C2C3"/>
</linearGradient>
<linearGradient id="paint4_linear_9_608" x1="59.3757" y1="191.415" x2="66.3387" y2="202.411" gradientUnits="userSpaceOnUse">
<stop stop-color="#111012"/>
<stop offset="1" stop-color="#444247"/>
</linearGradient>
<linearGradient id="paint5_linear_9_608" x1="35.6781" y1="184.235" x2="35.8684" y2="176.915" gradientUnits="userSpaceOnUse">
<stop stop-color="#27281F"/>
<stop offset="1" stop-color="#555058"/>
</linearGradient>
<linearGradient id="paint6_linear_9_608" x1="111.287" y1="100.357" x2="107.707" y2="106.427" gradientUnits="userSpaceOnUse">
<stop stop-color="#858482"/>
<stop offset="1" stop-color="#A09FA0"/>
</linearGradient>
<linearGradient id="paint7_linear_9_608" x1="75.4044" y1="133.246" x2="73.1789" y2="109.2" gradientUnits="userSpaceOnUse">
<stop stop-color="#808383"/>
<stop offset="1" stop-color="#A9A5A2"/>
</linearGradient>
<linearGradient id="paint8_linear_9_608" x1="225.081" y1="48.0853" x2="302.412" y2="64.5276" gradientUnits="userSpaceOnUse">
<stop/>
<stop offset="1" stop-color="#2A292C"/>
</linearGradient>
<linearGradient id="paint9_linear_9_608" x1="258.243" y1="54.1906" x2="269.874" y2="28.7747" gradientUnits="userSpaceOnUse">
<stop stop-color="#232328"/>
<stop offset="1" stop-color="#525053"/>
</linearGradient>
<linearGradient id="paint10_linear_9_608" x1="273.168" y1="32.0796" x2="290.151" y2="40.3478" gradientUnits="userSpaceOnUse">
<stop stop-color="#A4A5A8"/>
<stop offset="1" stop-color="#D6D3D3"/>
</linearGradient>
<linearGradient id="paint11_linear_9_608" x1="216.777" y1="185.039" x2="242.861" y2="195.937" gradientUnits="userSpaceOnUse">
<stop stop-color="#646264"/>
<stop offset="1" stop-color="#878687"/>
</linearGradient>
<linearGradient id="paint12_linear_9_608" x1="164.721" y1="105.015" x2="168.947" y2="104.371" gradientUnits="userSpaceOnUse">
<stop stop-color="#0D0910"/>
<stop offset="1" stop-color="#1D1E17"/>
</linearGradient>
<linearGradient id="paint13_linear_9_608" x1="169.011" y1="116.073" x2="168.82" y2="117.823" gradientUnits="userSpaceOnUse">
<stop stop-color="#272A26"/>
<stop offset="1" stop-color="#2B222E"/>
</linearGradient>
<linearGradient id="paint14_linear_9_608" x1="209.699" y1="189.529" x2="209.739" y2="190.676" gradientUnits="userSpaceOnUse">
<stop stop-color="#31332F"/>
<stop offset="1" stop-color="#352D37"/>
</linearGradient>
<linearGradient id="paint15_linear_9_608" x1="390.942" y1="181.433" x2="372.72" y2="160.077" gradientUnits="userSpaceOnUse">
<stop stop-color="#9A999B"/>
<stop offset="1" stop-color="#CECDCD"/>
</linearGradient>
<linearGradient id="paint16_linear_9_608" x1="358.163" y1="192.85" x2="365.742" y2="199.414" gradientUnits="userSpaceOnUse">
<stop stop-color="#545558"/>
<stop offset="1" stop-color="#808082"/>
</linearGradient>
<linearGradient id="paint17_linear_9_608" x1="401.148" y1="89.2734" x2="392.255" y2="93.5044" gradientUnits="userSpaceOnUse">
<stop stop-color="#BAB7AF"/>
<stop offset="1" stop-color="#D7D8DE"/>
</linearGradient>
<linearGradient id="paint18_linear_9_608" x1="394.95" y1="95.5991" x2="396.595" y2="92.505" gradientUnits="userSpaceOnUse">
<stop/>
<stop offset="1" stop-color="#1D1D29"/>
</linearGradient>
<linearGradient id="paint19_linear_9_608" x1="340.581" y1="123.93" x2="345.006" y2="126.342" gradientUnits="userSpaceOnUse">
<stop stop-color="#ABABAB"/>
<stop offset="1" stop-color="#D9D8D9"/>
</linearGradient>
<linearGradient id="paint20_linear_9_608" x1="322.107" y1="161.725" x2="328.702" y2="164.064" gradientUnits="userSpaceOnUse">
<stop stop-color="#A8A8A8"/>
<stop offset="1" stop-color="#E0DDDF"/>
</linearGradient>
<linearGradient id="paint21_linear_9_608" x1="343.71" y1="96.2177" x2="339.326" y2="95.9277" gradientUnits="userSpaceOnUse">
<stop stop-color="#979699"/>
<stop offset="1" stop-color="#B3B1AC"/>
</linearGradient>
<linearGradient id="paint22_linear_9_608" x1="345.971" y1="92.4513" x2="347.094" y2="85.0179" gradientUnits="userSpaceOnUse">
<stop stop-color="#9FA1A2"/>
<stop offset="1" stop-color="#CAC3C4"/>
</linearGradient>
<linearGradient id="paint23_linear_9_608" x1="333.041" y1="167.956" x2="345.974" y2="177.378" gradientUnits="userSpaceOnUse">
<stop stop-color="#A3A49D"/>
<stop offset="1" stop-color="#C5C4C6"/>
</linearGradient>
<linearGradient id="paint24_linear_9_608" x1="307.24" y1="176.053" x2="305.632" y2="205.537" gradientUnits="userSpaceOnUse">
<stop stop-color="#2D2C2B"/>
<stop offset="1" stop-color="#515254"/>
</linearGradient>
</defs>
</svg>
